<svg xmlns="http://www.w3.org/2000/svg" xmlns:xlink="http://www.w3.org/1999/xlink" width="500" zoomAndPan="magnify" viewBox="0 0 375 374.999991" height="500" preserveAspectRatio="xMidYMid meet" version="1.0"><defs><g/><clipPath id="1da54c7627"><path d="M 49 58 L 326.484375 58 L 326.484375 335 L 49 335 Z M 49 58 " clip-rule="nonzero"/></clipPath><clipPath id="34d117d9c8"><path d="M 298.789062 118.375 C 297.652344 116.917969 296.484375 115.480469 295.289062 114.066406 C 290.144531 106.09375 284.058594 98.734375 276.972656 92.261719 C 253.65625 70.941406 221.71875 59.347656 190.332031 58.363281 C 160.273438 57.425781 130.523438 66.863281 106.851562 85.464844 C 96.054688 93.949219 86.765625 104.230469 79.449219 115.847656 C 78.445312 117.4375 80.964844 118.902344 81.96875 117.316406 C 96.851562 93.789062 120.207031 76.132812 146.644531 67.558594 C 176.492188 57.871094 209.617188 59.933594 238.539062 71.800781 C 251.449219 77.101562 263.144531 84.351562 273.242188 93.320312 C 260.441406 83.722656 245.96875 76.355469 230.644531 71.761719 C 203.671875 63.675781 174.675781 65.015625 148.203125 74.359375 C 139.558594 77.410156 131.238281 81.277344 123.335938 85.847656 C 113.835938 90.796875 104.851562 96.792969 96.582031 103.808594 C 76.320312 120.976562 61.789062 143.386719 55.554688 168.804688 C 51.777344 180.535156 49.558594 192.820312 49.164062 205.414062 C 48.292969 233.332031 57.558594 260.1875 74.855469 282.019531 C 91.253906 302.714844 114.152344 318.363281 139.359375 326.214844 C 140.785156 326.65625 142.226562 327.070312 143.671875 327.46875 C 144.558594 327.757812 145.441406 328.035156 146.324219 328.300781 C 174.351562 336.855469 204.914062 337.460938 232.902344 328.421875 C 259.054688 319.976562 282.199219 303.175781 298.964844 281.464844 C 316.691406 258.507812 326.28125 230.417969 326.492188 201.421875 C 326.714844 171.601562 317.113281 141.964844 298.789062 118.375 Z M 266.945312 93.097656 C 277.402344 100.277344 286.722656 108.925781 294.605469 118.707031 C 297.21875 122.925781 299.582031 127.339844 301.667969 131.949219 C 313.515625 158.113281 316.683594 188.285156 311.902344 216.515625 C 307.003906 245.460938 293.296875 271.878906 270.4375 290.617188 C 258.378906 300.511719 244.609375 308.433594 230.5625 315.140625 C 215.441406 322.363281 199.375 327.578125 182.539062 328.339844 C 169.441406 328.933594 156.34375 327.261719 143.78125 323.660156 C 131.359375 319.519531 119.472656 313.785156 108.519531 306.613281 C 95.777344 298.265625 83.964844 287.957031 75.816406 274.953125 C 67.511719 261.703125 62.617188 246.378906 59.40625 231.164062 C 55.222656 211.347656 54.5625 190.589844 58.9375 170.964844 C 68.589844 140.46875 89.164062 113.003906 115.546875 95.136719 C 117.785156 93.621094 120.070312 92.167969 122.390625 90.769531 C 126.910156 88.257812 131.558594 85.980469 136.292969 83.96875 C 149.453125 78.371094 163.519531 74.675781 177.757812 73.289062 C 179.050781 73.160156 179.597656 71.941406 179.402344 70.964844 C 183.421875 70.496094 187.464844 70.210938 191.519531 70.125 C 218.382812 69.558594 244.835938 77.925781 266.945312 93.097656 Z M 53.164062 216.605469 C 53.800781 222.015625 54.707031 227.390625 55.847656 232.707031 C 56.890625 237.546875 58.105469 242.410156 59.542969 247.210938 C 59.292969 246.519531 59.042969 245.820312 58.804688 245.117188 C 55.625 235.746094 53.796875 226.179688 53.164062 216.605469 Z M 266.683594 308.105469 C 244.058594 323.917969 217.035156 331.855469 189.472656 331.480469 C 188.851562 331.46875 188.226562 331.453125 187.605469 331.433594 C 203.980469 329.832031 219.527344 324.253906 234.21875 316.972656 C 248.390625 309.941406 262.238281 301.78125 274.359375 291.550781 C 286.039062 281.699219 295.625 269.679688 302.566406 256.066406 C 315.835938 230.054688 319.738281 199.863281 315.757812 171.089844 C 314.167969 159.5625 311.28125 148.113281 307.042969 137.222656 C 310.859375 144.152344 314.039062 151.457031 316.503906 159.050781 C 325.5625 187.011719 325.355469 217.835938 315.199219 245.476562 C 305.933594 270.6875 288.667969 292.734375 266.683594 308.105469 Z M 266.683594 308.105469 " clip-rule="nonzero"/></clipPath><linearGradient x1="-42.090498" gradientTransform="matrix(0.554783, 0, 0, 0.554783, 45.779056, 54.608709)" y1="85.849021" x2="552.336465" gradientUnits="userSpaceOnUse" y2="429.041798" id="6cc8d56c33"><stop stop-opacity="1" stop-color="rgb(100%, 100%, 100%)" offset="0"/><stop stop-opacity="1" stop-color="rgb(100%, 100%, 100%)" offset="0.125"/><stop stop-opacity="1" stop-color="rgb(100%, 100%, 100%)" offset="0.140625"/><stop stop-opacity="1" stop-color="rgb(100%, 100%, 100%)" offset="0.148438"/><stop stop-opacity="1" stop-color="rgb(99.768066%, 99.751282%, 99.755859%)" offset="0.152344"/><stop stop-opacity="1" stop-color="rgb(99.537659%, 99.502563%, 99.513245%)" offset="0.15625"/><stop stop-opacity="1" stop-color="rgb(99.124146%, 99.060059%, 99.079895%)" offset="0.160156"/><stop stop-opacity="1" stop-color="rgb(98.712158%, 98.617554%, 98.648071%)" offset="0.164062"/><stop stop-opacity="1" stop-color="rgb(98.300171%, 98.173523%, 98.214722%)" offset="0.167969"/><stop stop-opacity="1" stop-color="rgb(97.888184%, 97.731018%, 97.782898%)" offset="0.171875"/><stop stop-opacity="1" stop-color="rgb(97.476196%, 97.288513%, 97.349548%)" offset="0.175781"/><stop stop-opacity="1" stop-color="rgb(97.064209%, 96.846008%, 96.917725%)" offset="0.179688"/><stop stop-opacity="1" stop-color="rgb(96.652222%, 96.401978%, 96.484375%)" offset="0.183594"/><stop stop-opacity="1" stop-color="rgb(96.240234%, 95.959473%, 96.052551%)" offset="0.1875"/><stop stop-opacity="1" stop-color="rgb(95.828247%, 95.516968%, 95.619202%)" offset="0.191406"/><stop stop-opacity="1" stop-color="rgb(95.41626%, 95.074463%, 95.187378%)" offset="0.195313"/><stop stop-opacity="1" stop-color="rgb(95.002747%, 94.630432%, 94.754028%)" offset="0.199219"/><stop stop-opacity="1" stop-color="rgb(94.590759%, 94.187927%, 94.322205%)" offset="0.203125"/><stop stop-opacity="1" stop-color="rgb(94.178772%, 93.745422%, 93.888855%)" offset="0.207031"/><stop stop-opacity="1" stop-color="rgb(93.766785%, 93.302917%, 93.457031%)" offset="0.210938"/><stop stop-opacity="1" stop-color="rgb(93.354797%, 92.858887%, 93.023682%)" offset="0.214844"/><stop stop-opacity="1" stop-color="rgb(92.94281%, 92.416382%, 92.591858%)" offset="0.21875"/><stop stop-opacity="1" stop-color="rgb(92.530823%, 91.973877%, 92.158508%)" offset="0.222656"/><stop stop-opacity="1" stop-color="rgb(92.118835%, 91.531372%, 91.726685%)" offset="0.226562"/><stop stop-opacity="1" stop-color="rgb(91.706848%, 91.087341%, 91.293335%)" offset="0.230469"/><stop stop-opacity="1" stop-color="rgb(91.294861%, 90.644836%, 90.861511%)" offset="0.234375"/><stop stop-opacity="1" stop-color="rgb(90.881348%, 90.202332%, 90.428162%)" offset="0.238281"/><stop stop-opacity="1" stop-color="rgb(90.46936%, 89.759827%, 89.996338%)" offset="0.242188"/><stop stop-opacity="1" stop-color="rgb(90.057373%, 89.317322%, 89.562988%)" offset="0.246094"/><stop stop-opacity="1" stop-color="rgb(89.645386%, 88.874817%, 89.131165%)" offset="0.25"/><stop stop-opacity="1" stop-color="rgb(89.233398%, 88.430786%, 88.697815%)" offset="0.253906"/><stop stop-opacity="1" stop-color="rgb(88.821411%, 87.988281%, 88.265991%)" offset="0.257812"/><stop stop-opacity="1" stop-color="rgb(88.409424%, 87.545776%, 87.832642%)" offset="0.261719"/><stop stop-opacity="1" stop-color="rgb(87.997437%, 87.103271%, 87.400818%)" offset="0.265625"/><stop stop-opacity="1" stop-color="rgb(87.585449%, 86.659241%, 86.967468%)" offset="0.269531"/><stop stop-opacity="1" stop-color="rgb(87.173462%, 86.216736%, 86.535645%)" offset="0.273438"/><stop stop-opacity="1" stop-color="rgb(86.761475%, 85.774231%, 86.102295%)" offset="0.277344"/><stop stop-opacity="1" stop-color="rgb(86.349487%, 85.331726%, 85.670471%)" offset="0.28125"/><stop stop-opacity="1" stop-color="rgb(85.935974%, 84.887695%, 85.237122%)" offset="0.285156"/><stop stop-opacity="1" stop-color="rgb(85.523987%, 84.44519%, 84.805298%)" offset="0.289062"/><stop stop-opacity="1" stop-color="rgb(85.112%, 84.002686%, 84.371948%)" offset="0.292969"/><stop stop-opacity="1" stop-color="rgb(84.700012%, 83.560181%, 83.940125%)" offset="0.296875"/><stop stop-opacity="1" stop-color="rgb(84.298706%, 83.129883%, 83.518982%)" offset="0.300781"/><stop stop-opacity="1" stop-color="rgb(83.898926%, 82.699585%, 83.099365%)" offset="0.304688"/><stop stop-opacity="1" stop-color="rgb(83.898926%, 82.699585%, 83.099365%)" offset="0.3125"/><stop stop-opacity="1" stop-color="rgb(83.898926%, 82.699585%, 83.099365%)" offset="0.367324"/><stop stop-opacity="1" stop-color="rgb(83.898926%, 82.699585%, 83.099365%)" offset="0.375"/><stop stop-opacity="1" stop-color="rgb(83.961487%, 82.717896%, 83.126831%)" offset="0.5"/><stop stop-opacity="1" stop-color="rgb(84.280396%, 82.8125%, 83.267212%)" offset="0.503906"/><stop stop-opacity="1" stop-color="rgb(84.538269%, 82.89032%, 83.380127%)" offset="0.507812"/><stop stop-opacity="1" stop-color="rgb(84.794617%, 82.966614%, 83.493042%)" offset="0.511719"/><stop stop-opacity="1" stop-color="rgb(85.05249%, 83.042908%, 83.607483%)" offset="0.515625"/><stop stop-opacity="1" stop-color="rgb(85.308838%, 83.119202%, 83.720398%)" offset="0.519531"/><stop stop-opacity="1" stop-color="rgb(85.566711%, 83.197021%, 83.833313%)" offset="0.523438"/><stop stop-opacity="1" stop-color="rgb(85.823059%, 83.273315%, 83.946228%)" offset="0.527344"/><stop stop-opacity="1" stop-color="rgb(86.080933%, 83.349609%, 84.059143%)" offset="0.53125"/><stop stop-opacity="1" stop-color="rgb(86.33728%, 83.425903%, 84.172058%)" offset="0.535156"/><stop stop-opacity="1" stop-color="rgb(86.593628%, 83.503723%, 84.286499%)" offset="0.539062"/><stop stop-opacity="1" stop-color="rgb(86.849976%, 83.580017%, 84.399414%)" offset="0.542969"/><stop stop-opacity="1" stop-color="rgb(87.107849%, 83.657837%, 84.512329%)" offset="0.546875"/><stop stop-opacity="1" stop-color="rgb(87.364197%, 83.734131%, 84.625244%)" offset="0.550781"/><stop stop-opacity="1" stop-color="rgb(87.62207%, 83.810425%, 84.738159%)" offset="0.554688"/><stop stop-opacity="1" stop-color="rgb(87.878418%, 83.886719%, 84.851074%)" offset="0.558594"/><stop stop-opacity="1" stop-color="rgb(88.136292%, 83.964539%, 84.963989%)" offset="0.5625"/><stop stop-opacity="1" stop-color="rgb(88.392639%, 84.040833%, 85.076904%)" offset="0.566406"/><stop stop-opacity="1" stop-color="rgb(88.650513%, 84.117126%, 85.191345%)" offset="0.570312"/><stop stop-opacity="1" stop-color="rgb(88.90686%, 84.19342%, 85.30426%)" offset="0.574219"/><stop stop-opacity="1" stop-color="rgb(89.163208%, 84.27124%, 85.417175%)" offset="0.578125"/><stop stop-opacity="1" stop-color="rgb(89.419556%, 84.347534%, 85.53009%)" offset="0.582031"/><stop stop-opacity="1" stop-color="rgb(89.677429%, 84.423828%, 85.643005%)" offset="0.585938"/><stop stop-opacity="1" stop-color="rgb(89.933777%, 84.500122%, 85.75592%)" offset="0.589844"/><stop stop-opacity="1" stop-color="rgb(90.19165%, 84.577942%, 85.870361%)" offset="0.59375"/><stop stop-opacity="1" stop-color="rgb(90.447998%, 84.654236%, 85.983276%)" offset="0.597656"/><stop stop-opacity="1" stop-color="rgb(90.705872%, 84.73053%, 86.096191%)" offset="0.601562"/><stop stop-opacity="1" stop-color="rgb(90.962219%, 84.806824%, 86.209106%)" offset="0.605469"/><stop stop-opacity="1" stop-color="rgb(91.220093%, 84.884644%, 86.322021%)" offset="0.609375"/><stop stop-opacity="1" stop-color="rgb(91.47644%, 84.960938%, 86.434937%)" offset="0.613281"/><stop stop-opacity="1" stop-color="rgb(91.732788%, 85.037231%, 86.549377%)" offset="0.617188"/><stop stop-opacity="1" stop-color="rgb(91.989136%, 85.113525%, 86.662292%)" offset="0.621094"/><stop stop-opacity="1" stop-color="rgb(92.247009%, 85.191345%, 86.775208%)" offset="0.625"/><stop stop-opacity="1" stop-color="rgb(92.503357%, 85.267639%, 86.888123%)" offset="0.628906"/><stop stop-opacity="1" stop-color="rgb(92.76123%, 85.343933%, 87.001038%)" offset="0.632812"/><stop stop-opacity="1" stop-color="rgb(93.017578%, 85.420227%, 87.113953%)" offset="0.636719"/><stop stop-opacity="1" stop-color="rgb(93.275452%, 85.498047%, 87.226868%)" offset="0.640625"/><stop stop-opacity="1" stop-color="rgb(93.531799%, 85.574341%, 87.339783%)" offset="0.644531"/><stop stop-opacity="1" stop-color="rgb(93.789673%, 85.652161%, 87.454224%)" offset="0.648438"/><stop stop-opacity="1" stop-color="rgb(94.046021%, 85.728455%, 87.567139%)" offset="0.652344"/><stop stop-opacity="1" stop-color="rgb(94.302368%, 85.804749%, 87.680054%)" offset="0.65625"/><stop stop-opacity="1" stop-color="rgb(94.558716%, 85.881042%, 87.792969%)" offset="0.660156"/><stop stop-opacity="1" stop-color="rgb(94.816589%, 85.958862%, 87.905884%)" offset="0.664062"/><stop stop-opacity="1" stop-color="rgb(95.072937%, 86.035156%, 88.018799%)" offset="0.667969"/><stop stop-opacity="1" stop-color="rgb(95.330811%, 86.11145%, 88.13324%)" offset="0.671875"/><stop stop-opacity="1" stop-color="rgb(95.587158%, 86.187744%, 88.246155%)" offset="0.675781"/><stop stop-opacity="1" stop-color="rgb(95.845032%, 86.265564%, 88.35907%)" offset="0.679688"/><stop stop-opacity="1" stop-color="rgb(96.101379%, 86.341858%, 88.471985%)" offset="0.683594"/><stop stop-opacity="1" stop-color="rgb(96.359253%, 86.418152%, 88.5849%)" offset="0.6875"/><stop stop-opacity="1" stop-color="rgb(96.615601%, 86.494446%, 88.697815%)" offset="0.691406"/><stop stop-opacity="1" stop-color="rgb(96.871948%, 86.572266%, 88.81073%)" offset="0.695313"/><stop stop-opacity="1" stop-color="rgb(97.085571%, 86.634827%, 88.905334%)" offset="0.699219"/><stop stop-opacity="1" stop-color="rgb(97.299194%, 86.698914%, 88.999939%)" offset="0.703125"/><stop stop-opacity="1" stop-color="rgb(97.299194%, 86.698914%, 88.999939%)" offset="0.71875"/><stop stop-opacity="1" stop-color="rgb(97.299194%, 86.698914%, 88.999939%)" offset="0.75"/><stop stop-opacity="1" stop-color="rgb(97.299194%, 86.698914%, 88.999939%)" offset="1"/></linearGradient></defs><g clip-path="url(#1da54c7627)"><g clip-path="url(#34d117d9c8)"><path fill="url(#6cc8d56c33)" d="M 48.292969 57.4375 L 48.292969 337.1875 L 326.484375 337.1875 L 326.484375 57.4375 Z M 48.292969 57.4375 " fill-rule="nonzero"/></g></g><g fill="#ffffff" fill-opacity="1"><g transform="translate(113.384036, 254.282079)"><g><path d="M 9.484375 0.171875 L 9.21875 0.171875 L 2.203125 -8.59375 L 2.140625 -8.59375 L 2.140625 0 L 1.4375 0 L 1.4375 -10.59375 L 2.625 -10.59375 L 8.71875 -2.890625 L 8.78125 -2.890625 L 8.78125 -10.59375 L 9.484375 -10.59375 Z M 9.484375 0.171875 "/></g></g></g><g fill="#ffffff" fill-opacity="1"><g transform="translate(131.749365, 254.282079)"><g><path d="M 0.15625 0 L 4.90625 -10.84375 L 5.15625 -10.84375 L 9.90625 0 L 8.15625 0 L 6.953125 -2.875 L 2.203125 -2.875 L 1.03125 0 Z M 2.453125 -3.484375 L 6.703125 -3.484375 L 4.59375 -8.671875 Z M 2.453125 -3.484375 "/></g></g></g><g fill="#ffffff" fill-opacity="1"><g transform="translate(149.250905, 254.282079)"><g><path d="M 2.90625 -10.59375 L 2.90625 0 L 1.4375 0 L 1.4375 -10.59375 Z M 2.90625 -10.59375 "/></g></g></g><g fill="#ffffff" fill-opacity="1"><g transform="translate(161.041809, 254.282079)"><g><path d="M 1.4375 0 L 1.4375 -10.59375 L 3.015625 -10.59375 L 3.015625 -0.859375 C 3.660156 -0.671875 4.179688 -0.578125 4.578125 -0.578125 L 7.46875 -1.078125 L 7.28125 0 Z M 1.4375 0 "/></g></g></g><g fill="#ffffff" fill-opacity="1"><g transform="translate(176.271891, 254.282079)"><g/></g></g><g fill="#ffffff" fill-opacity="1"><g transform="translate(187.710878, 254.282079)"><g><path d="M 4 0.203125 C 3.25 0.203125 2.535156 0.00390625 1.859375 -0.390625 C 1.503906 -0.585938 1.21875 -0.882812 1 -1.28125 C 0.78125 -1.6875 0.671875 -2.15625 0.671875 -2.6875 C 0.671875 -3.394531 0.9375 -4.007812 1.46875 -4.53125 C 2.007812 -5.0625 2.832031 -5.414062 3.9375 -5.59375 C 3.53125 -6.5 3.328125 -7.332031 3.328125 -8.09375 C 3.328125 -8.550781 3.46875 -9.070312 3.75 -9.65625 C 3.90625 -9.988281 4.175781 -10.265625 4.5625 -10.484375 C 4.945312 -10.710938 5.34375 -10.828125 5.75 -10.828125 C 6.15625 -10.828125 6.585938 -10.785156 7.046875 -10.703125 C 7.503906 -10.617188 7.847656 -10.523438 8.078125 -10.421875 L 7.921875 -9.40625 C 7.234375 -9.914062 6.390625 -10.171875 5.390625 -10.171875 C 4.878906 -9.847656 4.625 -9.257812 4.625 -8.40625 C 4.625 -7.550781 4.882812 -6.570312 5.40625 -5.46875 C 5.925781 -4.375 6.628906 -3.382812 7.515625 -2.5 C 7.890625 -3.101562 8.273438 -4.03125 8.671875 -5.28125 C 8.390625 -5.28125 8.191406 -5.285156 8.078125 -5.296875 L 8.078125 -5.796875 C 9.160156 -5.828125 10.066406 -5.941406 10.796875 -6.140625 L 10.53125 -5.34375 C 10.332031 -5.3125 9.960938 -5.285156 9.421875 -5.265625 C 8.992188 -3.960938 8.503906 -2.898438 7.953125 -2.078125 C 9.171875 -1.023438 10.421875 -0.5 11.703125 -0.5 L 11.015625 0 C 9.753906 0 8.523438 -0.429688 7.328125 -1.296875 C 6.398438 -0.296875 5.289062 0.203125 4 0.203125 Z M 4.46875 -0.546875 C 5.394531 -0.546875 6.203125 -0.90625 6.890625 -1.625 C 5.753906 -2.570312 4.84375 -3.726562 4.15625 -5.09375 C 3.4375 -4.882812 2.90625 -4.554688 2.5625 -4.109375 C 2.226562 -3.671875 2.0625 -3.195312 2.0625 -2.6875 C 2.0625 -1.945312 2.285156 -1.40625 2.734375 -1.0625 C 3.191406 -0.71875 3.769531 -0.546875 4.46875 -0.546875 Z M 4.46875 -0.546875 "/></g></g></g><g fill="#ffffff" fill-opacity="1"><g transform="translate(207.595844, 254.282079)"><g/></g></g><g fill="#ffffff" fill-opacity="1"><g transform="translate(219.034831, 254.282079)"><g><path d="M 2.59375 -8.75 C 2.59375 -8.28125 2.773438 -7.84375 3.140625 -7.4375 C 3.515625 -7.039062 3.960938 -6.691406 4.484375 -6.390625 C 5.015625 -6.085938 5.539062 -5.773438 6.0625 -5.453125 C 6.582031 -5.140625 7.023438 -4.753906 7.390625 -4.296875 C 7.765625 -3.835938 7.953125 -3.332031 7.953125 -2.78125 C 7.953125 -1.90625 7.628906 -1.191406 6.984375 -0.640625 C 6.335938 -0.0859375 5.460938 0.1875 4.359375 0.1875 C 3.265625 0.1875 2.179688 -0.0195312 1.109375 -0.4375 L 1.109375 -1.1875 C 2.191406 -0.644531 3.113281 -0.375 3.875 -0.375 C 4.644531 -0.375 5.238281 -0.554688 5.65625 -0.921875 C 6.082031 -1.296875 6.296875 -1.816406 6.296875 -2.484375 C 6.296875 -2.929688 6.117188 -3.335938 5.765625 -3.703125 C 5.421875 -4.066406 5 -4.382812 4.5 -4.65625 C 4 -4.9375 3.492188 -5.21875 2.984375 -5.5 C 2.484375 -5.789062 2.054688 -6.15625 1.703125 -6.59375 C 1.359375 -7.039062 1.1875 -7.578125 1.1875 -8.203125 C 1.1875 -8.835938 1.460938 -9.425781 2.015625 -9.96875 C 2.578125 -10.507812 3.414062 -10.78125 4.53125 -10.78125 C 5.25 -10.78125 6.164062 -10.613281 7.28125 -10.28125 L 7.125 -9.203125 C 5.675781 -9.816406 4.441406 -10.125 3.421875 -10.125 C 2.867188 -9.863281 2.59375 -9.40625 2.59375 -8.75 Z M 2.59375 -8.75 "/></g></g></g><g fill="#ffffff" fill-opacity="1"><g transform="translate(235.368651, 254.282079)"><g><path d="M 8.5625 -7.84375 C 8.5625 -6.8125 8.179688 -6.03125 7.421875 -5.5 C 6.671875 -4.976562 5.65625 -4.71875 4.375 -4.71875 L 2.984375 -4.71875 L 2.984375 0 L 1.4375 0 L 1.4375 -10.59375 L 4.875 -10.59375 C 5.957031 -10.59375 6.84375 -10.347656 7.53125 -9.859375 C 8.21875 -9.367188 8.5625 -8.695312 8.5625 -7.84375 Z M 2.984375 -5.1875 L 4.421875 -5.1875 C 4.921875 -5.1875 5.347656 -5.28125 5.703125 -5.46875 C 6.054688 -5.664062 6.316406 -5.910156 6.484375 -6.203125 C 6.765625 -6.742188 6.90625 -7.265625 6.90625 -7.765625 C 6.90625 -8.003906 6.84375 -8.296875 6.71875 -8.640625 C 6.46875 -9.347656 5.941406 -9.804688 5.140625 -10.015625 C 4.367188 -10.015625 3.648438 -9.925781 2.984375 -9.75 Z M 2.984375 -5.1875 "/></g></g></g><g fill="#ffffff" fill-opacity="1"><g transform="translate(251.542505, 254.282079)"><g><path d="M 0.15625 0 L 4.90625 -10.84375 L 5.15625 -10.84375 L 9.90625 0 L 8.15625 0 L 6.953125 -2.875 L 2.203125 -2.875 L 1.03125 0 Z M 2.453125 -3.484375 L 6.703125 -3.484375 L 4.59375 -8.671875 Z M 2.453125 -3.484375 "/></g></g></g><g fill="#ffffff" fill-opacity="1"><g transform="translate(66.890625, 209.149981)"><g><path d="M 67.828125 12.1875 C 61.898438 12.1875 57.046875 10.296875 53.265625 6.515625 C 50.460938 3.710938 48.617188 0.1875 47.734375 -4.0625 C 43.304688 -0.695312 37.875 0.984375 31.4375 0.984375 C 26.34375 0.984375 21.707031 -0.125 17.53125 -2.34375 C 13.351562 -4.5625 10.085938 -7.609375 7.734375 -11.484375 C 5.378906 -15.359375 4.203125 -19.71875 4.203125 -24.5625 C 4.203125 -29.414062 5.378906 -33.789062 7.734375 -37.6875 C 10.085938 -41.59375 13.34375 -44.617188 17.5 -46.765625 C 21.65625 -48.910156 26.300781 -49.984375 31.4375 -49.984375 C 37.875 -49.984375 43.539062 -48.394531 48.4375 -45.21875 L 49.84375 -35.34375 L 49.203125 -35.34375 C 47.804688 -40.757812 44.632812 -44.445312 39.6875 -46.40625 C 37.257812 -47.382812 34.507812 -47.875 31.4375 -47.875 C 25.132812 -47.875 19.894531 -45.679688 15.71875 -41.296875 C 11.539062 -36.910156 9.453125 -31.34375 9.453125 -24.59375 C 9.453125 -17.851562 11.550781 -12.265625 15.75 -7.828125 C 19.945312 -3.398438 25.175781 -1.164062 31.4375 -1.125 C 34.46875 -1.125 37.359375 -1.660156 40.109375 -2.734375 C 42.859375 -3.804688 45.21875 -5.296875 47.1875 -7.203125 L 47.1875 -19.59375 C 47.1875 -20.625 46.878906 -21.40625 46.265625 -21.9375 C 45.660156 -22.476562 44.800781 -22.75 43.6875 -22.75 L 42.5625 -22.75 L 42.5625 -23.453125 L 56.28125 -23.453125 L 56.28125 -22.75 L 55.234375 -22.75 C 54.066406 -22.75 53.175781 -22.476562 52.5625 -21.9375 C 51.957031 -21.40625 51.679688 -20.625 51.734375 -19.59375 L 51.734375 -8.8125 C 52.015625 -1.445312 54.414062 3.820312 58.9375 7 C 62.113281 9.238281 66.222656 10.359375 71.265625 10.359375 C 73.359375 10.359375 75.644531 10.148438 78.125 9.734375 L 78.1875 10.4375 C 74.457031 11.601562 71.003906 12.1875 67.828125 12.1875 Z M 67.828125 12.1875 "/></g></g></g><g fill="#ffffff" fill-opacity="1"><g transform="translate(126.107387, 209.149981)"><g><path d="M 17.5 1.328125 C 27.4375 4.785156 34.890625 7.128906 39.859375 8.359375 C 44.828125 9.597656 49.097656 10.21875 52.671875 10.21875 C 56.242188 10.21875 60.175781 9.398438 64.46875 7.765625 L 64.8125 8.328125 C 59.125 12.242188 53.382812 14.203125 47.59375 14.203125 C 41.664062 14.203125 34.925781 12.363281 27.375 8.6875 C 21.539062 5.789062 17.921875 4.039062 16.515625 3.4375 C 11.523438 1.1875 7.421875 0.0390625 4.203125 0 L 4.203125 -0.703125 L 5.109375 -0.703125 C 6.328125 -0.703125 7.363281 -1.117188 8.21875 -1.953125 C 9.082031 -2.796875 9.539062 -3.847656 9.59375 -5.109375 L 9.59375 -43.890625 C 9.539062 -45.097656 9.082031 -46.132812 8.21875 -47 C 7.363281 -47.863281 6.328125 -48.296875 5.109375 -48.296875 L 4.203125 -48.296875 L 4.203125 -49 L 19.53125 -49 L 19.53125 -48.296875 L 18.625 -48.296875 C 17.40625 -48.296875 16.351562 -47.863281 15.46875 -47 C 14.582031 -46.132812 14.140625 -45.097656 14.140625 -43.890625 L 14.140625 -3.5 C 14.140625 -2.65625 14.1875 -2.007812 14.28125 -1.5625 C 14.375 -1.125 14.675781 -0.625 15.1875 -0.0625 C 15.695312 0.488281 16.46875 0.953125 17.5 1.328125 Z M 17.5 1.328125 "/></g></g></g><g fill="#ffffff" fill-opacity="1"><g transform="translate(154.175852, 209.149981)"><g><path d="M 19.390625 -32.6875 C 19.203125 -33.289062 19.109375 -33.816406 19.109375 -34.265625 C 19.109375 -34.710938 19.128906 -35.210938 19.171875 -35.765625 C 19.222656 -36.328125 19.328125 -37.097656 19.484375 -38.078125 C 19.648438 -39.054688 19.96875 -40.023438 20.4375 -40.984375 C 20.90625 -41.941406 21.441406 -42.863281 22.046875 -43.75 C 22.648438 -44.632812 23.429688 -45.445312 24.390625 -46.1875 C 25.347656 -46.9375 26.410156 -47.59375 27.578125 -48.15625 C 30.054688 -49.375 33.066406 -49.984375 36.609375 -49.984375 C 43.742188 -49.984375 49.5625 -47.613281 54.0625 -42.875 C 58.570312 -38.132812 60.828125 -32.078125 60.828125 -24.703125 C 60.828125 -17.335938 58.164062 -11.210938 52.84375 -6.328125 C 47.53125 -1.453125 40.789062 0.984375 32.625 0.984375 C 24.457031 0.984375 17.675781 -1.441406 12.28125 -6.296875 C 6.894531 -11.148438 4.203125 -17.453125 4.203125 -25.203125 C 4.203125 -30.191406 5.367188 -34.625 7.703125 -38.5 C 10.035156 -42.375 13.367188 -45.40625 17.703125 -47.59375 L 18.125 -46.96875 C 15.09375 -44.957031 12.910156 -42.0625 11.578125 -38.28125 C 10.253906 -34.507812 9.59375 -30.5 9.59375 -26.25 C 9.59375 -18.363281 11.738281 -12.203125 16.03125 -7.765625 C 20.320312 -3.335938 25.828125 -1.125 32.546875 -1.125 C 39.265625 -1.125 44.757812 -3.347656 49.03125 -7.796875 C 53.300781 -12.253906 55.4375 -18.125 55.4375 -25.40625 C 55.4375 -31.707031 53.742188 -37.023438 50.359375 -41.359375 C 46.984375 -45.703125 42.210938 -47.875 36.046875 -47.875 C 33.296875 -47.875 30.800781 -47.382812 28.5625 -46.40625 C 24.5 -44.675781 21.816406 -41.832031 20.515625 -37.875 C 20.140625 -36.707031 19.953125 -35.703125 19.953125 -34.859375 C 19.953125 -34.015625 20 -33.335938 20.09375 -32.828125 Z M 19.390625 -32.6875 "/></g></g></g><g fill="#ffffff" fill-opacity="1"><g transform="translate(219.202299, 209.149981)"><g><path d="M 66.359375 11.90625 C 64.398438 12.414062 62.660156 12.671875 61.140625 12.671875 C 59.628906 12.671875 58.289062 12.578125 57.125 12.390625 C 55.957031 12.203125 54.707031 11.835938 53.375 11.296875 C 52.039062 10.765625 50.789062 10.148438 49.625 9.453125 C 48.457031 8.753906 47.289062 7.890625 46.125 6.859375 C 43.976562 5.128906 42.03125 3.257812 40.28125 1.25 C 38.53125 -0.75 35.160156 -4.515625 30.171875 -10.046875 C 25.179688 -15.578125 21.867188 -19.25 20.234375 -21.0625 C 18.597656 -22.882812 17.335938 -23.84375 16.453125 -23.9375 L 16.453125 -24.640625 C 19.160156 -24.640625 20.96875 -24.695312 21.875 -24.8125 C 22.78125 -24.925781 23.742188 -25.132812 24.765625 -25.4375 C 25.796875 -25.75 26.664062 -26.160156 27.375 -26.671875 C 30.125 -28.441406 31.5 -31.378906 31.5 -35.484375 C 31.5 -38.890625 30.738281 -41.617188 29.21875 -43.671875 C 27.707031 -45.734375 25.570312 -46.785156 22.8125 -46.828125 L 14.140625 -46.828125 L 14.140625 -5.109375 C 14.140625 -3.941406 14.570312 -2.914062 15.4375 -2.03125 C 16.300781 -1.144531 17.363281 -0.703125 18.625 -0.703125 L 19.453125 -0.703125 L 19.53125 0 L 4.203125 0 L 4.203125 -0.703125 L 5.109375 -0.703125 C 6.273438 -0.703125 7.300781 -1.117188 8.1875 -1.953125 C 9.070312 -2.796875 9.539062 -3.828125 9.59375 -5.046875 L 9.59375 -43.890625 C 9.539062 -45.097656 9.082031 -46.132812 8.21875 -47 C 7.363281 -47.863281 6.328125 -48.296875 5.109375 -48.296875 L 4.203125 -48.296875 L 4.203125 -49 L 23.09375 -49 C 27.207031 -49 30.507812 -47.84375 33 -45.53125 C 35.5 -43.21875 36.75 -40.160156 36.75 -36.359375 C 36.75 -32.554688 35.601562 -29.289062 33.3125 -26.5625 C 31.03125 -23.832031 28.234375 -22.46875 24.921875 -22.46875 C 24.921875 -22.46875 24.894531 -22.46875 24.84375 -22.46875 C 26.4375 -20.789062 28.234375 -18.832031 30.234375 -16.59375 C 38.304688 -7.675781 43.484375 -2.078125 45.765625 0.203125 C 48.054688 2.492188 50.078125 4.375 51.828125 5.84375 C 53.578125 7.3125 55.128906 8.394531 56.484375 9.09375 C 59.242188 10.59375 61.976562 11.34375 64.6875 11.34375 C 65.238281 11.34375 65.796875 11.296875 66.359375 11.203125 Z M 66.359375 11.90625 "/></g></g></g><g fill="#ffffff" fill-opacity="1"><g transform="translate(264.8398, 209.149981)"><g><path d="M -2.796875 -52.984375 C -2.472656 -52.984375 -1.890625 -52.984375 -1.046875 -52.984375 C -0.210938 -52.984375 0.925781 -52.84375 2.375 -52.5625 C 3.820312 -52.289062 5.164062 -51.882812 6.40625 -51.34375 C 7.644531 -50.8125 8.859375 -50.039062 10.046875 -49.03125 C 11.234375 -48.03125 12.242188 -47.097656 13.078125 -46.234375 C 13.921875 -45.367188 14.773438 -44.234375 15.640625 -42.828125 C 16.503906 -41.429688 17.203125 -40.242188 17.734375 -39.265625 C 18.273438 -38.285156 18.875 -37.003906 19.53125 -35.421875 C 20.375 -33.410156 21.050781 -31.671875 21.5625 -30.203125 C 22.070312 -28.734375 22.347656 -27.925781 22.390625 -27.78125 C 22.441406 -27.644531 22.515625 -27.484375 22.609375 -27.296875 C 22.742188 -26.921875 22.859375 -26.59375 22.953125 -26.3125 C 23.097656 -26.644531 23.425781 -27.507812 23.9375 -28.90625 C 24.445312 -30.3125 24.925781 -31.570312 25.375 -32.6875 C 25.820312 -33.8125 26.507812 -35.398438 27.4375 -37.453125 C 28.375 -39.503906 29.226562 -41.125 30 -42.3125 C 30.769531 -43.5 31.757812 -44.863281 32.96875 -46.40625 C 34.1875 -47.945312 35.398438 -49.140625 36.609375 -49.984375 C 39.597656 -51.984375 42.769531 -52.984375 46.125 -52.984375 L 46.125 -52.296875 C 43.507812 -52.296875 40.835938 -50.914062 38.109375 -48.15625 C 35.378906 -45.40625 33.046875 -42.082031 31.109375 -38.1875 C 29.171875 -34.289062 27.582031 -30.253906 26.34375 -26.078125 C 25.113281 -21.898438 24.5 -18.34375 24.5 -15.40625 L 24.5 -5.109375 C 24.5 -3.429688 25.222656 -2.171875 26.671875 -1.328125 C 27.367188 -0.910156 28.140625 -0.703125 28.984375 -0.703125 L 29.8125 -0.703125 L 29.8125 0 L 14.5625 0 L 14.5625 -0.703125 L 15.46875 -0.703125 C 16.632812 -0.703125 17.660156 -1.117188 18.546875 -1.953125 C 19.429688 -2.796875 19.898438 -3.828125 19.953125 -5.046875 L 19.953125 -15.46875 C 19.953125 -18.59375 19.296875 -22.253906 17.984375 -26.453125 C 16.679688 -30.660156 15.003906 -34.6875 12.953125 -38.53125 C 10.898438 -42.382812 8.445312 -45.640625 5.59375 -48.296875 C 2.75 -50.960938 -0.046875 -52.296875 -2.796875 -52.296875 Z M -2.796875 -52.984375 "/></g></g></g></svg>