<svg xmlns="http://www.w3.org/2000/svg" xmlns:xlink="http://www.w3.org/1999/xlink" width="500" zoomAndPan="magnify" viewBox="0 0 375 374.999991" height="500" preserveAspectRatio="xMidYMid meet" version="1.0"><defs><g/><clipPath id="128090e4e4"><path d="M 49 58 L 326.484375 58 L 326.484375 335 L 49 335 Z M 49 58 " clip-rule="nonzero"/></clipPath><clipPath id="f3d58585ef"><path d="M 298.789062 118.375 C 297.652344 116.917969 296.484375 115.480469 295.289062 114.066406 C 290.144531 106.09375 284.058594 98.734375 276.972656 92.261719 C 253.65625 70.941406 221.71875 59.347656 190.332031 58.363281 C 160.273438 57.425781 130.523438 66.863281 106.851562 85.464844 C 96.054688 93.949219 86.765625 104.230469 79.449219 115.847656 C 78.445312 117.4375 80.964844 118.902344 81.96875 117.316406 C 96.851562 93.789062 120.207031 76.132812 146.644531 67.558594 C 176.492188 57.871094 209.617188 59.933594 238.539062 71.800781 C 251.449219 77.101562 263.144531 84.351562 273.242188 93.320312 C 260.441406 83.722656 245.96875 76.355469 230.644531 71.761719 C 203.671875 63.675781 174.675781 65.015625 148.203125 74.359375 C 139.558594 77.410156 131.238281 81.277344 123.335938 85.847656 C 113.835938 90.796875 104.851562 96.792969 96.582031 103.808594 C 76.320312 120.976562 61.789062 143.386719 55.554688 168.804688 C 51.777344 180.535156 49.558594 192.820312 49.164062 205.414062 C 48.292969 233.332031 57.558594 260.1875 74.855469 282.019531 C 91.253906 302.714844 114.152344 318.363281 139.359375 326.214844 C 140.785156 326.65625 142.226562 327.070312 143.671875 327.46875 C 144.558594 327.757812 145.441406 328.035156 146.324219 328.300781 C 174.351562 336.855469 204.914062 337.460938 232.902344 328.421875 C 259.054688 319.976562 282.199219 303.175781 298.964844 281.464844 C 316.691406 258.507812 326.28125 230.417969 326.492188 201.421875 C 326.714844 171.601562 317.113281 141.964844 298.789062 118.375 Z M 266.945312 93.097656 C 277.402344 100.277344 286.722656 108.925781 294.605469 118.707031 C 297.21875 122.925781 299.582031 127.339844 301.667969 131.949219 C 313.515625 158.113281 316.683594 188.285156 311.902344 216.515625 C 307.003906 245.460938 293.296875 271.878906 270.4375 290.617188 C 258.378906 300.511719 244.609375 308.433594 230.5625 315.140625 C 215.441406 322.363281 199.375 327.578125 182.539062 328.339844 C 169.441406 328.933594 156.34375 327.261719 143.78125 323.660156 C 131.359375 319.519531 119.472656 313.785156 108.519531 306.613281 C 95.777344 298.265625 83.964844 287.957031 75.816406 274.953125 C 67.511719 261.703125 62.617188 246.378906 59.40625 231.164062 C 55.222656 211.347656 54.5625 190.589844 58.9375 170.964844 C 68.589844 140.46875 89.164062 113.003906 115.546875 95.136719 C 117.785156 93.621094 120.070312 92.167969 122.390625 90.769531 C 126.910156 88.257812 131.558594 85.980469 136.292969 83.96875 C 149.453125 78.371094 163.519531 74.675781 177.757812 73.289062 C 179.050781 73.160156 179.597656 71.941406 179.402344 70.964844 C 183.421875 70.496094 187.464844 70.210938 191.519531 70.125 C 218.382812 69.558594 244.835938 77.925781 266.945312 93.097656 Z M 53.164062 216.605469 C 53.800781 222.015625 54.707031 227.390625 55.847656 232.707031 C 56.890625 237.546875 58.105469 242.410156 59.542969 247.210938 C 59.292969 246.519531 59.042969 245.820312 58.804688 245.117188 C 55.625 235.746094 53.796875 226.179688 53.164062 216.605469 Z M 266.683594 308.105469 C 244.058594 323.917969 217.035156 331.855469 189.472656 331.480469 C 188.851562 331.46875 188.226562 331.453125 187.605469 331.433594 C 203.980469 329.832031 219.527344 324.253906 234.21875 316.972656 C 248.390625 309.941406 262.238281 301.78125 274.359375 291.550781 C 286.039062 281.699219 295.625 269.679688 302.566406 256.066406 C 315.835938 230.054688 319.738281 199.863281 315.757812 171.089844 C 314.167969 159.5625 311.28125 148.113281 307.042969 137.222656 C 310.859375 144.152344 314.039062 151.457031 316.503906 159.050781 C 325.5625 187.011719 325.355469 217.835938 315.199219 245.476562 C 305.933594 270.6875 288.667969 292.734375 266.683594 308.105469 Z M 266.683594 308.105469 " clip-rule="nonzero"/></clipPath><linearGradient x1="-42.090498" gradientTransform="matrix(0.554783, 0, 0, 0.554783, 45.779056, 54.608709)" y1="85.849021" x2="552.336465" gradientUnits="userSpaceOnUse" y2="429.041798" id="493566769d"><stop stop-opacity="1" stop-color="rgb(0%, 0%, 0%)" offset="0"/><stop stop-opacity="1" stop-color="rgb(0%, 0%, 0%)" offset="0.25"/><stop stop-opacity="1" stop-color="rgb(0%, 0%, 0%)" offset="0.28125"/><stop stop-opacity="1" stop-color="rgb(0%, 0%, 0%)" offset="0.296875"/><stop stop-opacity="1" stop-color="rgb(0.0244141%, 0.0244141%, 0.0244141%)" offset="0.304688"/><stop stop-opacity="1" stop-color="rgb(0.959778%, 0.959778%, 0.959778%)" offset="0.308594"/><stop stop-opacity="1" stop-color="rgb(1.870728%, 1.870728%, 1.870728%)" offset="0.3125"/><stop stop-opacity="1" stop-color="rgb(2.780151%, 2.780151%, 2.780151%)" offset="0.316406"/><stop stop-opacity="1" stop-color="rgb(3.689575%, 3.689575%, 3.689575%)" offset="0.320312"/><stop stop-opacity="1" stop-color="rgb(4.598999%, 4.598999%, 4.598999%)" offset="0.324219"/><stop stop-opacity="1" stop-color="rgb(5.509949%, 5.509949%, 5.509949%)" offset="0.328125"/><stop stop-opacity="1" stop-color="rgb(6.419373%, 6.419373%, 6.419373%)" offset="0.332031"/><stop stop-opacity="1" stop-color="rgb(7.328796%, 7.328796%, 7.328796%)" offset="0.335938"/><stop stop-opacity="1" stop-color="rgb(8.23822%, 8.23822%, 8.23822%)" offset="0.339844"/><stop stop-opacity="1" stop-color="rgb(9.14917%, 9.14917%, 9.14917%)" offset="0.34375"/><stop stop-opacity="1" stop-color="rgb(10.058594%, 10.058594%, 10.058594%)" offset="0.347656"/><stop stop-opacity="1" stop-color="rgb(10.969543%, 10.969543%, 10.969543%)" offset="0.351563"/><stop stop-opacity="1" stop-color="rgb(11.878967%, 11.878967%, 11.878967%)" offset="0.355469"/><stop stop-opacity="1" stop-color="rgb(12.788391%, 12.788391%, 12.788391%)" offset="0.359375"/><stop stop-opacity="1" stop-color="rgb(13.697815%, 13.697815%, 13.697815%)" offset="0.363281"/><stop stop-opacity="1" stop-color="rgb(14.608765%, 14.608765%, 14.608765%)" offset="0.367188"/><stop stop-opacity="1" stop-color="rgb(15.518188%, 15.518188%, 15.518188%)" offset="0.371094"/><stop stop-opacity="1" stop-color="rgb(16.427612%, 16.427612%, 16.427612%)" offset="0.375"/><stop stop-opacity="1" stop-color="rgb(17.337036%, 17.337036%, 17.337036%)" offset="0.378906"/><stop stop-opacity="1" stop-color="rgb(18.247986%, 18.247986%, 18.247986%)" offset="0.382813"/><stop stop-opacity="1" stop-color="rgb(19.15741%, 19.15741%, 19.15741%)" offset="0.386719"/><stop stop-opacity="1" stop-color="rgb(20.066833%, 20.066833%, 20.066833%)" offset="0.390625"/><stop stop-opacity="1" stop-color="rgb(20.976257%, 20.976257%, 20.976257%)" offset="0.394531"/><stop stop-opacity="1" stop-color="rgb(21.887207%, 21.887207%, 21.887207%)" offset="0.398438"/><stop stop-opacity="1" stop-color="rgb(22.796631%, 22.796631%, 22.796631%)" offset="0.402344"/><stop stop-opacity="1" stop-color="rgb(23.707581%, 23.707581%, 23.707581%)" offset="0.40625"/><stop stop-opacity="1" stop-color="rgb(24.617004%, 24.617004%, 24.617004%)" offset="0.410156"/><stop stop-opacity="1" stop-color="rgb(25.526428%, 25.526428%, 25.526428%)" offset="0.414063"/><stop stop-opacity="1" stop-color="rgb(26.435852%, 26.435852%, 26.435852%)" offset="0.417969"/><stop stop-opacity="1" stop-color="rgb(27.346802%, 27.346802%, 27.346802%)" offset="0.421875"/><stop stop-opacity="1" stop-color="rgb(28.256226%, 28.256226%, 28.256226%)" offset="0.425781"/><stop stop-opacity="1" stop-color="rgb(29.165649%, 29.165649%, 29.165649%)" offset="0.429688"/><stop stop-opacity="1" stop-color="rgb(30.075073%, 30.075073%, 30.075073%)" offset="0.433594"/><stop stop-opacity="1" stop-color="rgb(30.986023%, 30.986023%, 30.986023%)" offset="0.4375"/><stop stop-opacity="1" stop-color="rgb(31.895447%, 31.895447%, 31.895447%)" offset="0.441406"/><stop stop-opacity="1" stop-color="rgb(32.804871%, 32.804871%, 32.804871%)" offset="0.445313"/><stop stop-opacity="1" stop-color="rgb(33.714294%, 33.714294%, 33.714294%)" offset="0.449219"/><stop stop-opacity="1" stop-color="rgb(34.625244%, 34.625244%, 34.625244%)" offset="0.453125"/><stop stop-opacity="1" stop-color="rgb(35.534668%, 35.534668%, 35.534668%)" offset="0.457031"/><stop stop-opacity="1" stop-color="rgb(36.444092%, 36.444092%, 36.444092%)" offset="0.460938"/><stop stop-opacity="1" stop-color="rgb(37.353516%, 37.353516%, 37.353516%)" offset="0.464844"/><stop stop-opacity="1" stop-color="rgb(38.264465%, 38.264465%, 38.264465%)" offset="0.46875"/><stop stop-opacity="1" stop-color="rgb(39.173889%, 39.173889%, 39.173889%)" offset="0.472656"/><stop stop-opacity="1" stop-color="rgb(40.084839%, 40.084839%, 40.084839%)" offset="0.476563"/><stop stop-opacity="1" stop-color="rgb(40.994263%, 40.994263%, 40.994263%)" offset="0.480469"/><stop stop-opacity="1" stop-color="rgb(41.903687%, 41.903687%, 41.903687%)" offset="0.484375"/><stop stop-opacity="1" stop-color="rgb(42.81311%, 42.81311%, 42.81311%)" offset="0.488281"/><stop stop-opacity="1" stop-color="rgb(43.72406%, 43.72406%, 43.72406%)" offset="0.492188"/><stop stop-opacity="1" stop-color="rgb(44.200134%, 44.200134%, 44.200134%)" offset="0.496094"/><stop stop-opacity="1" stop-color="rgb(44.677734%, 44.677734%, 44.677734%)" offset="0.5"/><stop stop-opacity="1" stop-color="rgb(43.812561%, 43.812561%, 43.812561%)" offset="0.503906"/><stop stop-opacity="1" stop-color="rgb(42.947388%, 42.947388%, 42.947388%)" offset="0.507812"/><stop stop-opacity="1" stop-color="rgb(42.082214%, 42.082214%, 42.082214%)" offset="0.511719"/><stop stop-opacity="1" stop-color="rgb(41.217041%, 41.217041%, 41.217041%)" offset="0.515625"/><stop stop-opacity="1" stop-color="rgb(40.351868%, 40.351868%, 40.351868%)" offset="0.519531"/><stop stop-opacity="1" stop-color="rgb(39.48822%, 39.48822%, 39.48822%)" offset="0.523438"/><stop stop-opacity="1" stop-color="rgb(38.623047%, 38.623047%, 38.623047%)" offset="0.527344"/><stop stop-opacity="1" stop-color="rgb(37.757874%, 37.757874%, 37.757874%)" offset="0.53125"/><stop stop-opacity="1" stop-color="rgb(36.8927%, 36.8927%, 36.8927%)" offset="0.535156"/><stop stop-opacity="1" stop-color="rgb(36.029053%, 36.029053%, 36.029053%)" offset="0.539062"/><stop stop-opacity="1" stop-color="rgb(35.163879%, 35.163879%, 35.163879%)" offset="0.542969"/><stop stop-opacity="1" stop-color="rgb(34.298706%, 34.298706%, 34.298706%)" offset="0.546875"/><stop stop-opacity="1" stop-color="rgb(33.433533%, 33.433533%, 33.433533%)" offset="0.550781"/><stop stop-opacity="1" stop-color="rgb(32.569885%, 32.569885%, 32.569885%)" offset="0.554688"/><stop stop-opacity="1" stop-color="rgb(31.704712%, 31.704712%, 31.704712%)" offset="0.558594"/><stop stop-opacity="1" stop-color="rgb(30.839539%, 30.839539%, 30.839539%)" offset="0.5625"/><stop stop-opacity="1" stop-color="rgb(29.974365%, 29.974365%, 29.974365%)" offset="0.566406"/><stop stop-opacity="1" stop-color="rgb(29.110718%, 29.110718%, 29.110718%)" offset="0.570312"/><stop stop-opacity="1" stop-color="rgb(28.245544%, 28.245544%, 28.245544%)" offset="0.574219"/><stop stop-opacity="1" stop-color="rgb(27.380371%, 27.380371%, 27.380371%)" offset="0.578125"/><stop stop-opacity="1" stop-color="rgb(26.515198%, 26.515198%, 26.515198%)" offset="0.582031"/><stop stop-opacity="1" stop-color="rgb(25.650024%, 25.650024%, 25.650024%)" offset="0.585938"/><stop stop-opacity="1" stop-color="rgb(24.784851%, 24.784851%, 24.784851%)" offset="0.589844"/><stop stop-opacity="1" stop-color="rgb(23.921204%, 23.921204%, 23.921204%)" offset="0.59375"/><stop stop-opacity="1" stop-color="rgb(23.05603%, 23.05603%, 23.05603%)" offset="0.597656"/><stop stop-opacity="1" stop-color="rgb(22.190857%, 22.190857%, 22.190857%)" offset="0.601562"/><stop stop-opacity="1" stop-color="rgb(21.325684%, 21.325684%, 21.325684%)" offset="0.605469"/><stop stop-opacity="1" stop-color="rgb(20.462036%, 20.462036%, 20.462036%)" offset="0.609375"/><stop stop-opacity="1" stop-color="rgb(19.596863%, 19.596863%, 19.596863%)" offset="0.613281"/><stop stop-opacity="1" stop-color="rgb(18.731689%, 18.731689%, 18.731689%)" offset="0.617188"/><stop stop-opacity="1" stop-color="rgb(17.866516%, 17.866516%, 17.866516%)" offset="0.621094"/><stop stop-opacity="1" stop-color="rgb(17.002869%, 17.002869%, 17.002869%)" offset="0.625"/><stop stop-opacity="1" stop-color="rgb(16.137695%, 16.137695%, 16.137695%)" offset="0.628906"/><stop stop-opacity="1" stop-color="rgb(15.272522%, 15.272522%, 15.272522%)" offset="0.632812"/><stop stop-opacity="1" stop-color="rgb(14.407349%, 14.407349%, 14.407349%)" offset="0.636719"/><stop stop-opacity="1" stop-color="rgb(13.542175%, 13.542175%, 13.542175%)" offset="0.640625"/><stop stop-opacity="1" stop-color="rgb(12.677002%, 12.677002%, 12.677002%)" offset="0.644531"/><stop stop-opacity="1" stop-color="rgb(11.813354%, 11.813354%, 11.813354%)" offset="0.648438"/><stop stop-opacity="1" stop-color="rgb(10.948181%, 10.948181%, 10.948181%)" offset="0.652344"/><stop stop-opacity="1" stop-color="rgb(10.083008%, 10.083008%, 10.083008%)" offset="0.65625"/><stop stop-opacity="1" stop-color="rgb(9.217834%, 9.217834%, 9.217834%)" offset="0.660156"/><stop stop-opacity="1" stop-color="rgb(8.354187%, 8.354187%, 8.354187%)" offset="0.664062"/><stop stop-opacity="1" stop-color="rgb(7.489014%, 7.489014%, 7.489014%)" offset="0.667969"/><stop stop-opacity="1" stop-color="rgb(6.62384%, 6.62384%, 6.62384%)" offset="0.671875"/><stop stop-opacity="1" stop-color="rgb(5.758667%, 5.758667%, 5.758667%)" offset="0.675781"/><stop stop-opacity="1" stop-color="rgb(4.89502%, 4.89502%, 4.89502%)" offset="0.679688"/><stop stop-opacity="1" stop-color="rgb(4.029846%, 4.029846%, 4.029846%)" offset="0.683594"/><stop stop-opacity="1" stop-color="rgb(3.164673%, 3.164673%, 3.164673%)" offset="0.6875"/><stop stop-opacity="1" stop-color="rgb(2.2995%, 2.2995%, 2.2995%)" offset="0.691406"/><stop stop-opacity="1" stop-color="rgb(1.434326%, 1.434326%, 1.434326%)" offset="0.695313"/><stop stop-opacity="1" stop-color="rgb(0.848389%, 0.848389%, 0.848389%)" offset="0.699219"/><stop stop-opacity="1" stop-color="rgb(0.262451%, 0.262451%, 0.262451%)" offset="0.703125"/><stop stop-opacity="1" stop-color="rgb(1.039124%, 1.039124%, 1.039124%)" offset="0.707031"/><stop stop-opacity="1" stop-color="rgb(1.815796%, 1.815796%, 1.815796%)" offset="0.710938"/><stop stop-opacity="1" stop-color="rgb(2.590942%, 2.590942%, 2.590942%)" offset="0.714844"/><stop stop-opacity="1" stop-color="rgb(3.367615%, 3.367615%, 3.367615%)" offset="0.71875"/><stop stop-opacity="1" stop-color="rgb(4.144287%, 4.144287%, 4.144287%)" offset="0.722656"/><stop stop-opacity="1" stop-color="rgb(4.920959%, 4.920959%, 4.920959%)" offset="0.726562"/><stop stop-opacity="1" stop-color="rgb(5.696106%, 5.696106%, 5.696106%)" offset="0.730469"/><stop stop-opacity="1" stop-color="rgb(6.472778%, 6.472778%, 6.472778%)" offset="0.734375"/><stop stop-opacity="1" stop-color="rgb(7.249451%, 7.249451%, 7.249451%)" offset="0.738281"/><stop stop-opacity="1" stop-color="rgb(8.026123%, 8.026123%, 8.026123%)" offset="0.742188"/><stop stop-opacity="1" stop-color="rgb(8.80127%, 8.80127%, 8.80127%)" offset="0.746094"/><stop stop-opacity="1" stop-color="rgb(9.577942%, 9.577942%, 9.577942%)" offset="0.75"/><stop stop-opacity="1" stop-color="rgb(10.354614%, 10.354614%, 10.354614%)" offset="0.753906"/><stop stop-opacity="1" stop-color="rgb(11.131287%, 11.131287%, 11.131287%)" offset="0.757812"/><stop stop-opacity="1" stop-color="rgb(11.906433%, 11.906433%, 11.906433%)" offset="0.761719"/><stop stop-opacity="1" stop-color="rgb(12.683105%, 12.683105%, 12.683105%)" offset="0.765625"/><stop stop-opacity="1" stop-color="rgb(13.459778%, 13.459778%, 13.459778%)" offset="0.769531"/><stop stop-opacity="1" stop-color="rgb(14.23645%, 14.23645%, 14.23645%)" offset="0.773438"/><stop stop-opacity="1" stop-color="rgb(15.011597%, 15.011597%, 15.011597%)" offset="0.777344"/><stop stop-opacity="1" stop-color="rgb(15.788269%, 15.788269%, 15.788269%)" offset="0.78125"/><stop stop-opacity="1" stop-color="rgb(16.564941%, 16.564941%, 16.564941%)" offset="0.785156"/><stop stop-opacity="1" stop-color="rgb(17.341614%, 17.341614%, 17.341614%)" offset="0.789062"/><stop stop-opacity="1" stop-color="rgb(18.11676%, 18.11676%, 18.11676%)" offset="0.792969"/><stop stop-opacity="1" stop-color="rgb(18.893433%, 18.893433%, 18.893433%)" offset="0.796875"/><stop stop-opacity="1" stop-color="rgb(19.670105%, 19.670105%, 19.670105%)" offset="0.800781"/><stop stop-opacity="1" stop-color="rgb(20.446777%, 20.446777%, 20.446777%)" offset="0.804688"/><stop stop-opacity="1" stop-color="rgb(21.221924%, 21.221924%, 21.221924%)" offset="0.808594"/><stop stop-opacity="1" stop-color="rgb(21.998596%, 21.998596%, 21.998596%)" offset="0.8125"/><stop stop-opacity="1" stop-color="rgb(22.775269%, 22.775269%, 22.775269%)" offset="0.816406"/><stop stop-opacity="1" stop-color="rgb(23.551941%, 23.551941%, 23.551941%)" offset="0.820312"/><stop stop-opacity="1" stop-color="rgb(24.327087%, 24.327087%, 24.327087%)" offset="0.824219"/><stop stop-opacity="1" stop-color="rgb(25.10376%, 25.10376%, 25.10376%)" offset="0.828125"/><stop stop-opacity="1" stop-color="rgb(25.878906%, 25.878906%, 25.878906%)" offset="0.832031"/><stop stop-opacity="1" stop-color="rgb(26.655579%, 26.655579%, 26.655579%)" offset="0.835938"/><stop stop-opacity="1" stop-color="rgb(27.432251%, 27.432251%, 27.432251%)" offset="0.839844"/><stop stop-opacity="1" stop-color="rgb(28.208923%, 28.208923%, 28.208923%)" offset="0.84375"/><stop stop-opacity="1" stop-color="rgb(28.98407%, 28.98407%, 28.98407%)" offset="0.847656"/><stop stop-opacity="1" stop-color="rgb(29.760742%, 29.760742%, 29.760742%)" offset="0.851562"/><stop stop-opacity="1" stop-color="rgb(30.537415%, 30.537415%, 30.537415%)" offset="0.855469"/><stop stop-opacity="1" stop-color="rgb(31.314087%, 31.314087%, 31.314087%)" offset="0.859375"/><stop stop-opacity="1" stop-color="rgb(32.089233%, 32.089233%, 32.089233%)" offset="0.863281"/><stop stop-opacity="1" stop-color="rgb(32.865906%, 32.865906%, 32.865906%)" offset="0.867188"/><stop stop-opacity="1" stop-color="rgb(32.88269%, 32.88269%, 32.88269%)" offset="0.875"/><stop stop-opacity="1" stop-color="rgb(32.899475%, 32.899475%, 32.899475%)" offset="1"/></linearGradient></defs><g clip-path="url(#128090e4e4)"><g clip-path="url(#f3d58585ef)"><path fill="url(#493566769d)" d="M 48.292969 57.4375 L 48.292969 337.1875 L 326.484375 337.1875 L 326.484375 57.4375 Z M 48.292969 57.4375 " fill-rule="nonzero"/></g></g><g fill="#000000" fill-opacity="1"><g transform="translate(113.384036, 254.282079)"><g><path d="M 9.484375 0.171875 L 9.21875 0.171875 L 2.203125 -8.59375 L 2.140625 -8.59375 L 2.140625 0 L 1.4375 0 L 1.4375 -10.59375 L 2.625 -10.59375 L 8.71875 -2.890625 L 8.78125 -2.890625 L 8.78125 -10.59375 L 9.484375 -10.59375 Z M 9.484375 0.171875 "/></g></g></g><g fill="#000000" fill-opacity="1"><g transform="translate(131.749365, 254.282079)"><g><path d="M 0.15625 0 L 4.90625 -10.84375 L 5.15625 -10.84375 L 9.90625 0 L 8.15625 0 L 6.953125 -2.875 L 2.203125 -2.875 L 1.03125 0 Z M 2.453125 -3.484375 L 6.703125 -3.484375 L 4.59375 -8.671875 Z M 2.453125 -3.484375 "/></g></g></g><g fill="#000000" fill-opacity="1"><g transform="translate(149.250905, 254.282079)"><g><path d="M 2.90625 -10.59375 L 2.90625 0 L 1.4375 0 L 1.4375 -10.59375 Z M 2.90625 -10.59375 "/></g></g></g><g fill="#000000" fill-opacity="1"><g transform="translate(161.041809, 254.282079)"><g><path d="M 1.4375 0 L 1.4375 -10.59375 L 3.015625 -10.59375 L 3.015625 -0.859375 C 3.660156 -0.671875 4.179688 -0.578125 4.578125 -0.578125 L 7.46875 -1.078125 L 7.28125 0 Z M 1.4375 0 "/></g></g></g><g fill="#000000" fill-opacity="1"><g transform="translate(176.271891, 254.282079)"><g/></g></g><g fill="#000000" fill-opacity="1"><g transform="translate(187.710878, 254.282079)"><g><path d="M 4 0.203125 C 3.25 0.203125 2.535156 0.00390625 1.859375 -0.390625 C 1.503906 -0.585938 1.21875 -0.882812 1 -1.28125 C 0.78125 -1.6875 0.671875 -2.15625 0.671875 -2.6875 C 0.671875 -3.394531 0.9375 -4.007812 1.46875 -4.53125 C 2.007812 -5.0625 2.832031 -5.414062 3.9375 -5.59375 C 3.53125 -6.5 3.328125 -7.332031 3.328125 -8.09375 C 3.328125 -8.550781 3.46875 -9.070312 3.75 -9.65625 C 3.90625 -9.988281 4.175781 -10.265625 4.5625 -10.484375 C 4.945312 -10.710938 5.34375 -10.828125 5.75 -10.828125 C 6.15625 -10.828125 6.585938 -10.785156 7.046875 -10.703125 C 7.503906 -10.617188 7.847656 -10.523438 8.078125 -10.421875 L 7.921875 -9.40625 C 7.234375 -9.914062 6.390625 -10.171875 5.390625 -10.171875 C 4.878906 -9.847656 4.625 -9.257812 4.625 -8.40625 C 4.625 -7.550781 4.882812 -6.570312 5.40625 -5.46875 C 5.925781 -4.375 6.628906 -3.382812 7.515625 -2.5 C 7.890625 -3.101562 8.273438 -4.03125 8.671875 -5.28125 C 8.390625 -5.28125 8.191406 -5.285156 8.078125 -5.296875 L 8.078125 -5.796875 C 9.160156 -5.828125 10.066406 -5.941406 10.796875 -6.140625 L 10.53125 -5.34375 C 10.332031 -5.3125 9.960938 -5.285156 9.421875 -5.265625 C 8.992188 -3.960938 8.503906 -2.898438 7.953125 -2.078125 C 9.171875 -1.023438 10.421875 -0.5 11.703125 -0.5 L 11.015625 0 C 9.753906 0 8.523438 -0.429688 7.328125 -1.296875 C 6.398438 -0.296875 5.289062 0.203125 4 0.203125 Z M 4.46875 -0.546875 C 5.394531 -0.546875 6.203125 -0.90625 6.890625 -1.625 C 5.753906 -2.570312 4.84375 -3.726562 4.15625 -5.09375 C 3.4375 -4.882812 2.90625 -4.554688 2.5625 -4.109375 C 2.226562 -3.671875 2.0625 -3.195312 2.0625 -2.6875 C 2.0625 -1.945312 2.285156 -1.40625 2.734375 -1.0625 C 3.191406 -0.71875 3.769531 -0.546875 4.46875 -0.546875 Z M 4.46875 -0.546875 "/></g></g></g><g fill="#000000" fill-opacity="1"><g transform="translate(207.595844, 254.282079)"><g/></g></g><g fill="#000000" fill-opacity="1"><g transform="translate(219.034831, 254.282079)"><g><path d="M 2.59375 -8.75 C 2.59375 -8.28125 2.773438 -7.84375 3.140625 -7.4375 C 3.515625 -7.039062 3.960938 -6.691406 4.484375 -6.390625 C 5.015625 -6.085938 5.539062 -5.773438 6.0625 -5.453125 C 6.582031 -5.140625 7.023438 -4.753906 7.390625 -4.296875 C 7.765625 -3.835938 7.953125 -3.332031 7.953125 -2.78125 C 7.953125 -1.90625 7.628906 -1.191406 6.984375 -0.640625 C 6.335938 -0.0859375 5.460938 0.1875 4.359375 0.1875 C 3.265625 0.1875 2.179688 -0.0195312 1.109375 -0.4375 L 1.109375 -1.1875 C 2.191406 -0.644531 3.113281 -0.375 3.875 -0.375 C 4.644531 -0.375 5.238281 -0.554688 5.65625 -0.921875 C 6.082031 -1.296875 6.296875 -1.816406 6.296875 -2.484375 C 6.296875 -2.929688 6.117188 -3.335938 5.765625 -3.703125 C 5.421875 -4.066406 5 -4.382812 4.5 -4.65625 C 4 -4.9375 3.492188 -5.21875 2.984375 -5.5 C 2.484375 -5.789062 2.054688 -6.15625 1.703125 -6.59375 C 1.359375 -7.039062 1.1875 -7.578125 1.1875 -8.203125 C 1.1875 -8.835938 1.460938 -9.425781 2.015625 -9.96875 C 2.578125 -10.507812 3.414062 -10.78125 4.53125 -10.78125 C 5.25 -10.78125 6.164062 -10.613281 7.28125 -10.28125 L 7.125 -9.203125 C 5.675781 -9.816406 4.441406 -10.125 3.421875 -10.125 C 2.867188 -9.863281 2.59375 -9.40625 2.59375 -8.75 Z M 2.59375 -8.75 "/></g></g></g><g fill="#000000" fill-opacity="1"><g transform="translate(235.368651, 254.282079)"><g><path d="M 8.5625 -7.84375 C 8.5625 -6.8125 8.179688 -6.03125 7.421875 -5.5 C 6.671875 -4.976562 5.65625 -4.71875 4.375 -4.71875 L 2.984375 -4.71875 L 2.984375 0 L 1.4375 0 L 1.4375 -10.59375 L 4.875 -10.59375 C 5.957031 -10.59375 6.84375 -10.347656 7.53125 -9.859375 C 8.21875 -9.367188 8.5625 -8.695312 8.5625 -7.84375 Z M 2.984375 -5.1875 L 4.421875 -5.1875 C 4.921875 -5.1875 5.347656 -5.28125 5.703125 -5.46875 C 6.054688 -5.664062 6.316406 -5.910156 6.484375 -6.203125 C 6.765625 -6.742188 6.90625 -7.265625 6.90625 -7.765625 C 6.90625 -8.003906 6.84375 -8.296875 6.71875 -8.640625 C 6.46875 -9.347656 5.941406 -9.804688 5.140625 -10.015625 C 4.367188 -10.015625 3.648438 -9.925781 2.984375 -9.75 Z M 2.984375 -5.1875 "/></g></g></g><g fill="#000000" fill-opacity="1"><g transform="translate(251.542505, 254.282079)"><g><path d="M 0.15625 0 L 4.90625 -10.84375 L 5.15625 -10.84375 L 9.90625 0 L 8.15625 0 L 6.953125 -2.875 L 2.203125 -2.875 L 1.03125 0 Z M 2.453125 -3.484375 L 6.703125 -3.484375 L 4.59375 -8.671875 Z M 2.453125 -3.484375 "/></g></g></g><g fill="#000000" fill-opacity="1"><g transform="translate(66.890625, 209.149981)"><g><path d="M 67.828125 12.1875 C 61.898438 12.1875 57.046875 10.296875 53.265625 6.515625 C 50.460938 3.710938 48.617188 0.1875 47.734375 -4.0625 C 43.304688 -0.695312 37.875 0.984375 31.4375 0.984375 C 26.34375 0.984375 21.707031 -0.125 17.53125 -2.34375 C 13.351562 -4.5625 10.085938 -7.609375 7.734375 -11.484375 C 5.378906 -15.359375 4.203125 -19.71875 4.203125 -24.5625 C 4.203125 -29.414062 5.378906 -33.789062 7.734375 -37.6875 C 10.085938 -41.59375 13.34375 -44.617188 17.5 -46.765625 C 21.65625 -48.910156 26.300781 -49.984375 31.4375 -49.984375 C 37.875 -49.984375 43.539062 -48.394531 48.4375 -45.21875 L 49.84375 -35.34375 L 49.203125 -35.34375 C 47.804688 -40.757812 44.632812 -44.445312 39.6875 -46.40625 C 37.257812 -47.382812 34.507812 -47.875 31.4375 -47.875 C 25.132812 -47.875 19.894531 -45.679688 15.71875 -41.296875 C 11.539062 -36.910156 9.453125 -31.34375 9.453125 -24.59375 C 9.453125 -17.851562 11.550781 -12.265625 15.75 -7.828125 C 19.945312 -3.398438 25.175781 -1.164062 31.4375 -1.125 C 34.46875 -1.125 37.359375 -1.660156 40.109375 -2.734375 C 42.859375 -3.804688 45.21875 -5.296875 47.1875 -7.203125 L 47.1875 -19.59375 C 47.1875 -20.625 46.878906 -21.40625 46.265625 -21.9375 C 45.660156 -22.476562 44.800781 -22.75 43.6875 -22.75 L 42.5625 -22.75 L 42.5625 -23.453125 L 56.28125 -23.453125 L 56.28125 -22.75 L 55.234375 -22.75 C 54.066406 -22.75 53.175781 -22.476562 52.5625 -21.9375 C 51.957031 -21.40625 51.679688 -20.625 51.734375 -19.59375 L 51.734375 -8.8125 C 52.015625 -1.445312 54.414062 3.820312 58.9375 7 C 62.113281 9.238281 66.222656 10.359375 71.265625 10.359375 C 73.359375 10.359375 75.644531 10.148438 78.125 9.734375 L 78.1875 10.4375 C 74.457031 11.601562 71.003906 12.1875 67.828125 12.1875 Z M 67.828125 12.1875 "/></g></g></g><g fill="#000000" fill-opacity="1"><g transform="translate(126.107387, 209.149981)"><g><path d="M 17.5 1.328125 C 27.4375 4.785156 34.890625 7.128906 39.859375 8.359375 C 44.828125 9.597656 49.097656 10.21875 52.671875 10.21875 C 56.242188 10.21875 60.175781 9.398438 64.46875 7.765625 L 64.8125 8.328125 C 59.125 12.242188 53.382812 14.203125 47.59375 14.203125 C 41.664062 14.203125 34.925781 12.363281 27.375 8.6875 C 21.539062 5.789062 17.921875 4.039062 16.515625 3.4375 C 11.523438 1.1875 7.421875 0.0390625 4.203125 0 L 4.203125 -0.703125 L 5.109375 -0.703125 C 6.328125 -0.703125 7.363281 -1.117188 8.21875 -1.953125 C 9.082031 -2.796875 9.539062 -3.847656 9.59375 -5.109375 L 9.59375 -43.890625 C 9.539062 -45.097656 9.082031 -46.132812 8.21875 -47 C 7.363281 -47.863281 6.328125 -48.296875 5.109375 -48.296875 L 4.203125 -48.296875 L 4.203125 -49 L 19.53125 -49 L 19.53125 -48.296875 L 18.625 -48.296875 C 17.40625 -48.296875 16.351562 -47.863281 15.46875 -47 C 14.582031 -46.132812 14.140625 -45.097656 14.140625 -43.890625 L 14.140625 -3.5 C 14.140625 -2.65625 14.1875 -2.007812 14.28125 -1.5625 C 14.375 -1.125 14.675781 -0.625 15.1875 -0.0625 C 15.695312 0.488281 16.46875 0.953125 17.5 1.328125 Z M 17.5 1.328125 "/></g></g></g><g fill="#000000" fill-opacity="1"><g transform="translate(154.175852, 209.149981)"><g><path d="M 19.390625 -32.6875 C 19.203125 -33.289062 19.109375 -33.816406 19.109375 -34.265625 C 19.109375 -34.710938 19.128906 -35.210938 19.171875 -35.765625 C 19.222656 -36.328125 19.328125 -37.097656 19.484375 -38.078125 C 19.648438 -39.054688 19.96875 -40.023438 20.4375 -40.984375 C 20.90625 -41.941406 21.441406 -42.863281 22.046875 -43.75 C 22.648438 -44.632812 23.429688 -45.445312 24.390625 -46.1875 C 25.347656 -46.9375 26.410156 -47.59375 27.578125 -48.15625 C 30.054688 -49.375 33.066406 -49.984375 36.609375 -49.984375 C 43.742188 -49.984375 49.5625 -47.613281 54.0625 -42.875 C 58.570312 -38.132812 60.828125 -32.078125 60.828125 -24.703125 C 60.828125 -17.335938 58.164062 -11.210938 52.84375 -6.328125 C 47.53125 -1.453125 40.789062 0.984375 32.625 0.984375 C 24.457031 0.984375 17.675781 -1.441406 12.28125 -6.296875 C 6.894531 -11.148438 4.203125 -17.453125 4.203125 -25.203125 C 4.203125 -30.191406 5.367188 -34.625 7.703125 -38.5 C 10.035156 -42.375 13.367188 -45.40625 17.703125 -47.59375 L 18.125 -46.96875 C 15.09375 -44.957031 12.910156 -42.0625 11.578125 -38.28125 C 10.253906 -34.507812 9.59375 -30.5 9.59375 -26.25 C 9.59375 -18.363281 11.738281 -12.203125 16.03125 -7.765625 C 20.320312 -3.335938 25.828125 -1.125 32.546875 -1.125 C 39.265625 -1.125 44.757812 -3.347656 49.03125 -7.796875 C 53.300781 -12.253906 55.4375 -18.125 55.4375 -25.40625 C 55.4375 -31.707031 53.742188 -37.023438 50.359375 -41.359375 C 46.984375 -45.703125 42.210938 -47.875 36.046875 -47.875 C 33.296875 -47.875 30.800781 -47.382812 28.5625 -46.40625 C 24.5 -44.675781 21.816406 -41.832031 20.515625 -37.875 C 20.140625 -36.707031 19.953125 -35.703125 19.953125 -34.859375 C 19.953125 -34.015625 20 -33.335938 20.09375 -32.828125 Z M 19.390625 -32.6875 "/></g></g></g><g fill="#000000" fill-opacity="1"><g transform="translate(219.202299, 209.149981)"><g><path d="M 66.359375 11.90625 C 64.398438 12.414062 62.660156 12.671875 61.140625 12.671875 C 59.628906 12.671875 58.289062 12.578125 57.125 12.390625 C 55.957031 12.203125 54.707031 11.835938 53.375 11.296875 C 52.039062 10.765625 50.789062 10.148438 49.625 9.453125 C 48.457031 8.753906 47.289062 7.890625 46.125 6.859375 C 43.976562 5.128906 42.03125 3.257812 40.28125 1.25 C 38.53125 -0.75 35.160156 -4.515625 30.171875 -10.046875 C 25.179688 -15.578125 21.867188 -19.25 20.234375 -21.0625 C 18.597656 -22.882812 17.335938 -23.84375 16.453125 -23.9375 L 16.453125 -24.640625 C 19.160156 -24.640625 20.96875 -24.695312 21.875 -24.8125 C 22.78125 -24.925781 23.742188 -25.132812 24.765625 -25.4375 C 25.796875 -25.75 26.664062 -26.160156 27.375 -26.671875 C 30.125 -28.441406 31.5 -31.378906 31.5 -35.484375 C 31.5 -38.890625 30.738281 -41.617188 29.21875 -43.671875 C 27.707031 -45.734375 25.570312 -46.785156 22.8125 -46.828125 L 14.140625 -46.828125 L 14.140625 -5.109375 C 14.140625 -3.941406 14.570312 -2.914062 15.4375 -2.03125 C 16.300781 -1.144531 17.363281 -0.703125 18.625 -0.703125 L 19.453125 -0.703125 L 19.53125 0 L 4.203125 0 L 4.203125 -0.703125 L 5.109375 -0.703125 C 6.273438 -0.703125 7.300781 -1.117188 8.1875 -1.953125 C 9.070312 -2.796875 9.539062 -3.828125 9.59375 -5.046875 L 9.59375 -43.890625 C 9.539062 -45.097656 9.082031 -46.132812 8.21875 -47 C 7.363281 -47.863281 6.328125 -48.296875 5.109375 -48.296875 L 4.203125 -48.296875 L 4.203125 -49 L 23.09375 -49 C 27.207031 -49 30.507812 -47.84375 33 -45.53125 C 35.5 -43.21875 36.75 -40.160156 36.75 -36.359375 C 36.75 -32.554688 35.601562 -29.289062 33.3125 -26.5625 C 31.03125 -23.832031 28.234375 -22.46875 24.921875 -22.46875 C 24.921875 -22.46875 24.894531 -22.46875 24.84375 -22.46875 C 26.4375 -20.789062 28.234375 -18.832031 30.234375 -16.59375 C 38.304688 -7.675781 43.484375 -2.078125 45.765625 0.203125 C 48.054688 2.492188 50.078125 4.375 51.828125 5.84375 C 53.578125 7.3125 55.128906 8.394531 56.484375 9.09375 C 59.242188 10.59375 61.976562 11.34375 64.6875 11.34375 C 65.238281 11.34375 65.796875 11.296875 66.359375 11.203125 Z M 66.359375 11.90625 "/></g></g></g><g fill="#000000" fill-opacity="1"><g transform="translate(264.8398, 209.149981)"><g><path d="M -2.796875 -52.984375 C -2.472656 -52.984375 -1.890625 -52.984375 -1.046875 -52.984375 C -0.210938 -52.984375 0.925781 -52.84375 2.375 -52.5625 C 3.820312 -52.289062 5.164062 -51.882812 6.40625 -51.34375 C 7.644531 -50.8125 8.859375 -50.039062 10.046875 -49.03125 C 11.234375 -48.03125 12.242188 -47.097656 13.078125 -46.234375 C 13.921875 -45.367188 14.773438 -44.234375 15.640625 -42.828125 C 16.503906 -41.429688 17.203125 -40.242188 17.734375 -39.265625 C 18.273438 -38.285156 18.875 -37.003906 19.53125 -35.421875 C 20.375 -33.410156 21.050781 -31.671875 21.5625 -30.203125 C 22.070312 -28.734375 22.347656 -27.925781 22.390625 -27.78125 C 22.441406 -27.644531 22.515625 -27.484375 22.609375 -27.296875 C 22.742188 -26.921875 22.859375 -26.59375 22.953125 -26.3125 C 23.097656 -26.644531 23.425781 -27.507812 23.9375 -28.90625 C 24.445312 -30.3125 24.925781 -31.570312 25.375 -32.6875 C 25.820312 -33.8125 26.507812 -35.398438 27.4375 -37.453125 C 28.375 -39.503906 29.226562 -41.125 30 -42.3125 C 30.769531 -43.5 31.757812 -44.863281 32.96875 -46.40625 C 34.1875 -47.945312 35.398438 -49.140625 36.609375 -49.984375 C 39.597656 -51.984375 42.769531 -52.984375 46.125 -52.984375 L 46.125 -52.296875 C 43.507812 -52.296875 40.835938 -50.914062 38.109375 -48.15625 C 35.378906 -45.40625 33.046875 -42.082031 31.109375 -38.1875 C 29.171875 -34.289062 27.582031 -30.253906 26.34375 -26.078125 C 25.113281 -21.898438 24.5 -18.34375 24.5 -15.40625 L 24.5 -5.109375 C 24.5 -3.429688 25.222656 -2.171875 26.671875 -1.328125 C 27.367188 -0.910156 28.140625 -0.703125 28.984375 -0.703125 L 29.8125 -0.703125 L 29.8125 0 L 14.5625 0 L 14.5625 -0.703125 L 15.46875 -0.703125 C 16.632812 -0.703125 17.660156 -1.117188 18.546875 -1.953125 C 19.429688 -2.796875 19.898438 -3.828125 19.953125 -5.046875 L 19.953125 -15.46875 C 19.953125 -18.59375 19.296875 -22.253906 17.984375 -26.453125 C 16.679688 -30.660156 15.003906 -34.6875 12.953125 -38.53125 C 10.898438 -42.382812 8.445312 -45.640625 5.59375 -48.296875 C 2.75 -50.960938 -0.046875 -52.296875 -2.796875 -52.296875 Z M -2.796875 -52.984375 "/></g></g></g></svg>