<svg xmlns="http://www.w3.org/2000/svg" xmlns:xlink="http://www.w3.org/1999/xlink" width="500" zoomAndPan="magnify" viewBox="0 0 375 374.999991" height="500" preserveAspectRatio="xMidYMid meet" version="1.0"><defs><g/><clipPath id="28113e700c"><path d="M 49 48 L 326.484375 48 L 326.484375 325 L 49 325 Z M 49 48 " clip-rule="nonzero"/></clipPath><clipPath id="80b0687add"><path d="M 298.535156 108.339844 C 297.398438 106.882812 296.234375 105.449219 295.039062 104.035156 C 289.898438 96.070312 283.820312 88.722656 276.742188 82.253906 C 253.449219 60.957031 221.542969 49.375 190.191406 48.394531 C 160.164062 47.457031 130.4375 56.882812 106.789062 75.464844 C 96.003906 83.941406 86.726562 94.207031 79.417969 105.8125 C 78.414062 107.402344 80.929688 108.867188 81.933594 107.28125 C 96.804688 83.777344 120.136719 66.144531 146.542969 57.578125 C 176.363281 47.902344 209.453125 49.960938 238.347656 61.816406 C 251.242188 67.109375 262.925781 74.351562 273.011719 83.3125 C 260.226562 73.726562 245.765625 66.367188 230.460938 61.777344 C 203.511719 53.699219 174.550781 55.039062 148.101562 64.371094 C 139.46875 67.417969 131.152344 71.28125 123.261719 75.847656 C 113.769531 80.792969 104.796875 86.78125 96.53125 93.789062 C 76.292969 110.9375 61.777344 133.324219 55.546875 158.714844 C 51.773438 170.429688 49.554688 182.707031 49.164062 195.285156 C 48.292969 223.171875 57.546875 250 74.828125 271.804688 C 91.210938 292.476562 114.085938 308.109375 139.269531 315.953125 C 140.691406 316.394531 142.132812 316.804688 143.574219 317.203125 C 144.460938 317.492188 145.34375 317.769531 146.222656 318.035156 C 174.222656 326.582031 204.753906 327.1875 232.714844 318.15625 C 258.839844 309.722656 281.964844 292.9375 298.710938 271.253906 C 316.417969 248.320312 326.003906 220.261719 326.214844 191.296875 C 326.433594 161.507812 316.839844 131.902344 298.535156 108.339844 Z M 266.722656 83.089844 C 277.167969 90.261719 286.480469 98.902344 294.355469 108.671875 C 296.964844 112.882812 299.328125 117.296875 301.410156 121.902344 C 313.25 148.035156 316.414062 178.171875 311.636719 206.375 C 306.742188 235.285156 293.046875 261.675781 270.214844 280.394531 C 258.164062 290.277344 244.410156 298.191406 230.375 304.890625 C 215.273438 312.105469 199.222656 317.316406 182.402344 318.074219 C 169.316406 318.667969 156.234375 317 143.683594 313.402344 C 131.277344 309.261719 119.398438 303.539062 108.457031 296.375 C 95.726562 288.03125 83.929688 277.734375 75.789062 264.746094 C 67.492188 251.511719 62.601562 236.207031 59.394531 221.003906 C 55.214844 201.210938 54.554688 180.476562 58.925781 160.871094 C 68.570312 130.40625 89.121094 102.976562 115.480469 85.125 C 117.714844 83.613281 119.996094 82.160156 122.3125 80.765625 C 126.832031 78.253906 131.476562 75.980469 136.203125 73.96875 C 149.347656 68.378906 163.40625 64.6875 177.625 63.300781 C 178.917969 63.175781 179.464844 61.957031 179.273438 60.980469 C 183.285156 60.515625 187.324219 60.226562 191.375 60.144531 C 218.210938 59.578125 244.636719 67.933594 266.722656 83.089844 Z M 53.160156 206.464844 C 53.796875 211.867188 54.699219 217.238281 55.839844 222.546875 C 56.882812 227.382812 58.097656 232.238281 59.53125 237.039062 C 59.28125 236.34375 59.03125 235.644531 58.792969 234.941406 C 55.617188 225.582031 53.789062 216.027344 53.160156 206.464844 Z M 266.460938 297.863281 C 243.859375 313.660156 216.863281 321.589844 189.332031 321.210938 C 188.710938 321.199219 188.082031 321.183594 187.464844 321.167969 C 203.824219 319.566406 219.351562 313.996094 234.027344 306.71875 C 248.1875 299.699219 262.023438 291.546875 274.132812 281.328125 C 285.800781 271.484375 295.375 259.480469 302.308594 245.882812 C 315.566406 219.898438 319.460938 189.738281 315.488281 161 C 313.898438 149.484375 311.015625 138.042969 306.78125 127.164062 C 310.59375 134.085938 313.769531 141.386719 316.230469 148.972656 C 325.28125 176.902344 325.078125 207.695312 314.929688 235.304688 C 305.671875 260.484375 288.425781 282.507812 266.460938 297.863281 Z M 266.460938 297.863281 " clip-rule="nonzero"/></clipPath><linearGradient x1="-42.090497" gradientTransform="matrix(0.554223, 0, 0, 0.55418, 45.781535, 44.642729)" y1="85.849021" x2="552.863264" gradientUnits="userSpaceOnUse" y2="429.345945" id="e6e986b968"><stop stop-opacity="1" stop-color="rgb(70.999146%, 38.798523%, 46.299744%)" offset="0"/><stop stop-opacity="1" stop-color="rgb(70.999146%, 38.798523%, 46.299744%)" offset="0.125"/><stop stop-opacity="1" stop-color="rgb(70.999146%, 38.798523%, 46.299744%)" offset="0.140625"/><stop stop-opacity="1" stop-color="rgb(70.999146%, 38.798523%, 46.299744%)" offset="0.148437"/><stop stop-opacity="1" stop-color="rgb(71.369934%, 39.378357%, 46.844482%)" offset="0.152344"/><stop stop-opacity="1" stop-color="rgb(71.742249%, 39.959717%, 47.389221%)" offset="0.15625"/><stop stop-opacity="1" stop-color="rgb(72.384644%, 40.963745%, 48.332214%)" offset="0.160156"/><stop stop-opacity="1" stop-color="rgb(73.028564%, 41.969299%, 49.275208%)" offset="0.164062"/><stop stop-opacity="1" stop-color="rgb(73.670959%, 42.973328%, 50.218201%)" offset="0.167969"/><stop stop-opacity="1" stop-color="rgb(74.31488%, 43.977356%, 51.161194%)" offset="0.171875"/><stop stop-opacity="1" stop-color="rgb(74.957275%, 44.981384%, 52.102661%)" offset="0.175781"/><stop stop-opacity="1" stop-color="rgb(75.601196%, 45.986938%, 53.045654%)" offset="0.179687"/><stop stop-opacity="1" stop-color="rgb(76.243591%, 46.990967%, 53.988647%)" offset="0.183594"/><stop stop-opacity="1" stop-color="rgb(76.887512%, 47.994995%, 54.931641%)" offset="0.1875"/><stop stop-opacity="1" stop-color="rgb(77.529907%, 48.999023%, 55.874634%)" offset="0.191406"/><stop stop-opacity="1" stop-color="rgb(78.173828%, 50.003052%, 56.817627%)" offset="0.195312"/><stop stop-opacity="1" stop-color="rgb(78.816223%, 51.00708%, 57.76062%)" offset="0.199219"/><stop stop-opacity="1" stop-color="rgb(79.460144%, 52.012634%, 58.703613%)" offset="0.203125"/><stop stop-opacity="1" stop-color="rgb(80.102539%, 53.016663%, 59.646606%)" offset="0.207031"/><stop stop-opacity="1" stop-color="rgb(80.74646%, 54.020691%, 60.5896%)" offset="0.210937"/><stop stop-opacity="1" stop-color="rgb(81.388855%, 55.024719%, 61.532593%)" offset="0.214844"/><stop stop-opacity="1" stop-color="rgb(82.032776%, 56.030273%, 62.475586%)" offset="0.21875"/><stop stop-opacity="1" stop-color="rgb(82.675171%, 57.034302%, 63.417053%)" offset="0.222656"/><stop stop-opacity="1" stop-color="rgb(83.317566%, 58.03833%, 64.360046%)" offset="0.226562"/><stop stop-opacity="1" stop-color="rgb(83.959961%, 59.042358%, 65.30304%)" offset="0.230469"/><stop stop-opacity="1" stop-color="rgb(84.603882%, 60.047913%, 66.246033%)" offset="0.234375"/><stop stop-opacity="1" stop-color="rgb(85.246277%, 61.051941%, 67.189026%)" offset="0.238281"/><stop stop-opacity="1" stop-color="rgb(85.890198%, 62.055969%, 68.132019%)" offset="0.242188"/><stop stop-opacity="1" stop-color="rgb(86.532593%, 63.059998%, 69.075012%)" offset="0.246094"/><stop stop-opacity="1" stop-color="rgb(87.176514%, 64.064026%, 70.018005%)" offset="0.25"/><stop stop-opacity="1" stop-color="rgb(87.818909%, 65.068054%, 70.960999%)" offset="0.253906"/><stop stop-opacity="1" stop-color="rgb(88.46283%, 66.073608%, 71.903992%)" offset="0.257812"/><stop stop-opacity="1" stop-color="rgb(89.105225%, 67.077637%, 72.845459%)" offset="0.261719"/><stop stop-opacity="1" stop-color="rgb(89.749146%, 68.081665%, 73.788452%)" offset="0.265625"/><stop stop-opacity="1" stop-color="rgb(90.391541%, 69.085693%, 74.731445%)" offset="0.269531"/><stop stop-opacity="1" stop-color="rgb(91.035461%, 70.091248%, 75.674438%)" offset="0.273437"/><stop stop-opacity="1" stop-color="rgb(91.677856%, 71.095276%, 76.617432%)" offset="0.277344"/><stop stop-opacity="1" stop-color="rgb(92.321777%, 72.099304%, 77.560425%)" offset="0.28125"/><stop stop-opacity="1" stop-color="rgb(92.964172%, 73.103333%, 78.503418%)" offset="0.285156"/><stop stop-opacity="1" stop-color="rgb(93.608093%, 74.107361%, 79.446411%)" offset="0.289062"/><stop stop-opacity="1" stop-color="rgb(94.250488%, 75.111389%, 80.389404%)" offset="0.292969"/><stop stop-opacity="1" stop-color="rgb(94.894409%, 76.116943%, 81.332397%)" offset="0.296875"/><stop stop-opacity="1" stop-color="rgb(95.469666%, 77.018738%, 82.174683%)" offset="0.300781"/><stop stop-opacity="1" stop-color="rgb(96.046448%, 77.920532%, 83.018494%)" offset="0.304688"/><stop stop-opacity="1" stop-color="rgb(95.626831%, 77.287292%, 82.369995%)" offset="0.308594"/><stop stop-opacity="1" stop-color="rgb(95.207214%, 76.655579%, 81.721497%)" offset="0.3125"/><stop stop-opacity="1" stop-color="rgb(94.786072%, 76.023865%, 81.072998%)" offset="0.316406"/><stop stop-opacity="1" stop-color="rgb(94.366455%, 75.392151%, 80.4245%)" offset="0.320312"/><stop stop-opacity="1" stop-color="rgb(93.946838%, 74.758911%, 79.776001%)" offset="0.324219"/><stop stop-opacity="1" stop-color="rgb(93.527222%, 74.127197%, 79.129028%)" offset="0.328125"/><stop stop-opacity="1" stop-color="rgb(93.106079%, 73.495483%, 78.48053%)" offset="0.332031"/><stop stop-opacity="1" stop-color="rgb(92.686462%, 72.86377%, 77.832031%)" offset="0.335938"/><stop stop-opacity="1" stop-color="rgb(92.266846%, 72.232056%, 77.183533%)" offset="0.339844"/><stop stop-opacity="1" stop-color="rgb(91.847229%, 71.600342%, 76.53656%)" offset="0.34375"/><stop stop-opacity="1" stop-color="rgb(91.426086%, 70.967102%, 75.888062%)" offset="0.347656"/><stop stop-opacity="1" stop-color="rgb(91.00647%, 70.335388%, 75.239563%)" offset="0.351562"/><stop stop-opacity="1" stop-color="rgb(90.586853%, 69.703674%, 74.591064%)" offset="0.355469"/><stop stop-opacity="1" stop-color="rgb(90.167236%, 69.07196%, 73.944092%)" offset="0.359375"/><stop stop-opacity="1" stop-color="rgb(89.746094%, 68.438721%, 73.295593%)" offset="0.363281"/><stop stop-opacity="1" stop-color="rgb(89.326477%, 67.807007%, 72.647095%)" offset="0.367187"/><stop stop-opacity="1" stop-color="rgb(88.90686%, 67.175293%, 71.998596%)" offset="0.371094"/><stop stop-opacity="1" stop-color="rgb(88.487244%, 66.543579%, 71.351624%)" offset="0.375"/><stop stop-opacity="1" stop-color="rgb(88.066101%, 65.911865%, 70.703125%)" offset="0.378906"/><stop stop-opacity="1" stop-color="rgb(87.646484%, 65.280151%, 70.054626%)" offset="0.382812"/><stop stop-opacity="1" stop-color="rgb(87.226868%, 64.646912%, 69.406128%)" offset="0.386719"/><stop stop-opacity="1" stop-color="rgb(86.807251%, 64.015198%, 68.757629%)" offset="0.390625"/><stop stop-opacity="1" stop-color="rgb(86.386108%, 63.383484%, 68.109131%)" offset="0.394531"/><stop stop-opacity="1" stop-color="rgb(85.966492%, 62.75177%, 67.462158%)" offset="0.398438"/><stop stop-opacity="1" stop-color="rgb(85.546875%, 62.120056%, 66.81366%)" offset="0.402344"/><stop stop-opacity="1" stop-color="rgb(85.127258%, 61.488342%, 66.165161%)" offset="0.40625"/><stop stop-opacity="1" stop-color="rgb(84.706116%, 60.855103%, 65.516663%)" offset="0.410156"/><stop stop-opacity="1" stop-color="rgb(84.286499%, 60.223389%, 64.86969%)" offset="0.414062"/><stop stop-opacity="1" stop-color="rgb(83.866882%, 59.591675%, 64.221191%)" offset="0.417969"/><stop stop-opacity="1" stop-color="rgb(83.447266%, 58.959961%, 63.572693%)" offset="0.421875"/><stop stop-opacity="1" stop-color="rgb(83.026123%, 58.326721%, 62.924194%)" offset="0.425781"/><stop stop-opacity="1" stop-color="rgb(82.606506%, 57.695007%, 62.277222%)" offset="0.429687"/><stop stop-opacity="1" stop-color="rgb(82.18689%, 57.063293%, 61.628723%)" offset="0.433594"/><stop stop-opacity="1" stop-color="rgb(81.767273%, 56.43158%, 60.980225%)" offset="0.4375"/><stop stop-opacity="1" stop-color="rgb(81.34613%, 55.799866%, 60.331726%)" offset="0.441406"/><stop stop-opacity="1" stop-color="rgb(80.926514%, 55.168152%, 59.683228%)" offset="0.445312"/><stop stop-opacity="1" stop-color="rgb(80.506897%, 54.534912%, 59.034729%)" offset="0.449219"/><stop stop-opacity="1" stop-color="rgb(80.08728%, 53.903198%, 58.387756%)" offset="0.453125"/><stop stop-opacity="1" stop-color="rgb(79.666138%, 53.271484%, 57.739258%)" offset="0.457031"/><stop stop-opacity="1" stop-color="rgb(79.246521%, 52.639771%, 57.090759%)" offset="0.460937"/><stop stop-opacity="1" stop-color="rgb(78.826904%, 52.006531%, 56.442261%)" offset="0.464844"/><stop stop-opacity="1" stop-color="rgb(78.407288%, 51.374817%, 55.795288%)" offset="0.46875"/><stop stop-opacity="1" stop-color="rgb(77.986145%, 50.743103%, 55.14679%)" offset="0.472656"/><stop stop-opacity="1" stop-color="rgb(77.566528%, 50.111389%, 54.498291%)" offset="0.476562"/><stop stop-opacity="1" stop-color="rgb(77.146912%, 49.479675%, 53.849792%)" offset="0.480469"/><stop stop-opacity="1" stop-color="rgb(76.727295%, 48.847961%, 53.20282%)" offset="0.484375"/><stop stop-opacity="1" stop-color="rgb(76.306152%, 48.214722%, 52.554321%)" offset="0.488281"/><stop stop-opacity="1" stop-color="rgb(75.886536%, 47.583008%, 51.905823%)" offset="0.492188"/><stop stop-opacity="1" stop-color="rgb(75.718689%, 47.370911%, 51.670837%)" offset="0.496094"/><stop stop-opacity="1" stop-color="rgb(75.552368%, 47.160339%, 51.437378%)" offset="0.5"/><stop stop-opacity="1" stop-color="rgb(75.975037%, 47.927856%, 52.166748%)" offset="0.503906"/><stop stop-opacity="1" stop-color="rgb(76.397705%, 48.695374%, 52.896118%)" offset="0.507812"/><stop stop-opacity="1" stop-color="rgb(76.818848%, 49.462891%, 53.625488%)" offset="0.511719"/><stop stop-opacity="1" stop-color="rgb(77.241516%, 50.231934%, 54.354858%)" offset="0.515625"/><stop stop-opacity="1" stop-color="rgb(77.664185%, 50.999451%, 55.084229%)" offset="0.519531"/><stop stop-opacity="1" stop-color="rgb(78.086853%, 51.766968%, 55.813599%)" offset="0.523437"/><stop stop-opacity="1" stop-color="rgb(78.507996%, 52.534485%, 56.542969%)" offset="0.527344"/><stop stop-opacity="1" stop-color="rgb(78.930664%, 53.302002%, 57.272339%)" offset="0.53125"/><stop stop-opacity="1" stop-color="rgb(79.353333%, 54.069519%, 58.001709%)" offset="0.535156"/><stop stop-opacity="1" stop-color="rgb(79.776001%, 54.838562%, 58.731079%)" offset="0.539062"/><stop stop-opacity="1" stop-color="rgb(80.197144%, 55.606079%, 59.460449%)" offset="0.542969"/><stop stop-opacity="1" stop-color="rgb(80.619812%, 56.373596%, 60.189819%)" offset="0.546875"/><stop stop-opacity="1" stop-color="rgb(81.04248%, 57.141113%, 60.919189%)" offset="0.550781"/><stop stop-opacity="1" stop-color="rgb(81.465149%, 57.90863%, 61.64856%)" offset="0.554688"/><stop stop-opacity="1" stop-color="rgb(81.886292%, 58.676147%, 62.37793%)" offset="0.558594"/><stop stop-opacity="1" stop-color="rgb(82.30896%, 59.443665%, 63.1073%)" offset="0.5625"/><stop stop-opacity="1" stop-color="rgb(82.730103%, 60.211182%, 63.83667%)" offset="0.566406"/><stop stop-opacity="1" stop-color="rgb(83.152771%, 60.980225%, 64.56604%)" offset="0.570312"/><stop stop-opacity="1" stop-color="rgb(83.575439%, 61.747742%, 65.29541%)" offset="0.574219"/><stop stop-opacity="1" stop-color="rgb(83.998108%, 62.515259%, 66.02478%)" offset="0.578125"/><stop stop-opacity="1" stop-color="rgb(84.41925%, 63.282776%, 66.75415%)" offset="0.582031"/><stop stop-opacity="1" stop-color="rgb(84.841919%, 64.050293%, 67.483521%)" offset="0.585938"/><stop stop-opacity="1" stop-color="rgb(85.264587%, 64.81781%, 68.212891%)" offset="0.589844"/><stop stop-opacity="1" stop-color="rgb(85.687256%, 65.585327%, 68.942261%)" offset="0.59375"/><stop stop-opacity="1" stop-color="rgb(86.108398%, 66.352844%, 69.671631%)" offset="0.597656"/><stop stop-opacity="1" stop-color="rgb(86.531067%, 67.121887%, 70.401001%)" offset="0.601562"/><stop stop-opacity="1" stop-color="rgb(86.953735%, 67.889404%, 71.130371%)" offset="0.605469"/><stop stop-opacity="1" stop-color="rgb(87.376404%, 68.656921%, 71.859741%)" offset="0.609375"/><stop stop-opacity="1" stop-color="rgb(87.797546%, 69.424438%, 72.587585%)" offset="0.613281"/><stop stop-opacity="1" stop-color="rgb(88.220215%, 70.191956%, 73.316956%)" offset="0.617188"/><stop stop-opacity="1" stop-color="rgb(88.642883%, 70.959473%, 74.046326%)" offset="0.621094"/><stop stop-opacity="1" stop-color="rgb(89.065552%, 71.728516%, 74.775696%)" offset="0.625"/><stop stop-opacity="1" stop-color="rgb(89.486694%, 72.496033%, 75.505066%)" offset="0.628906"/><stop stop-opacity="1" stop-color="rgb(89.909363%, 73.26355%, 76.234436%)" offset="0.632812"/><stop stop-opacity="1" stop-color="rgb(90.330505%, 74.031067%, 76.963806%)" offset="0.636719"/><stop stop-opacity="1" stop-color="rgb(90.753174%, 74.798584%, 77.693176%)" offset="0.640625"/><stop stop-opacity="1" stop-color="rgb(91.175842%, 75.566101%, 78.422546%)" offset="0.644531"/><stop stop-opacity="1" stop-color="rgb(91.598511%, 76.333618%, 79.151917%)" offset="0.648437"/><stop stop-opacity="1" stop-color="rgb(92.019653%, 77.101135%, 79.881287%)" offset="0.652344"/><stop stop-opacity="1" stop-color="rgb(92.442322%, 77.870178%, 80.610657%)" offset="0.65625"/><stop stop-opacity="1" stop-color="rgb(92.86499%, 78.637695%, 81.340027%)" offset="0.660156"/><stop stop-opacity="1" stop-color="rgb(93.287659%, 79.405212%, 82.069397%)" offset="0.664062"/><stop stop-opacity="1" stop-color="rgb(93.708801%, 80.172729%, 82.798767%)" offset="0.667969"/><stop stop-opacity="1" stop-color="rgb(94.13147%, 80.940247%, 83.528137%)" offset="0.671875"/><stop stop-opacity="1" stop-color="rgb(94.554138%, 81.707764%, 84.257507%)" offset="0.675781"/><stop stop-opacity="1" stop-color="rgb(94.976807%, 82.475281%, 84.986877%)" offset="0.679687"/><stop stop-opacity="1" stop-color="rgb(95.397949%, 83.242798%, 85.716248%)" offset="0.683594"/><stop stop-opacity="1" stop-color="rgb(95.820618%, 84.011841%, 86.445618%)" offset="0.6875"/><stop stop-opacity="1" stop-color="rgb(96.243286%, 84.779358%, 87.174988%)" offset="0.691406"/><stop stop-opacity="1" stop-color="rgb(96.665955%, 85.546875%, 87.904358%)" offset="0.695312"/><stop stop-opacity="1" stop-color="rgb(96.841431%, 85.839844%, 88.179016%)" offset="0.699219"/><stop stop-opacity="1" stop-color="rgb(97.016907%, 86.134338%, 88.453674%)" offset="0.703125"/><stop stop-opacity="1" stop-color="rgb(96.44928%, 85.003662%, 87.359619%)" offset="0.707031"/><stop stop-opacity="1" stop-color="rgb(95.883179%, 83.872986%, 86.26709%)" offset="0.710938"/><stop stop-opacity="1" stop-color="rgb(95.315552%, 82.740784%, 85.173035%)" offset="0.714844"/><stop stop-opacity="1" stop-color="rgb(94.749451%, 81.610107%, 84.080505%)" offset="0.71875"/><stop stop-opacity="1" stop-color="rgb(94.181824%, 80.477905%, 82.98645%)" offset="0.722656"/><stop stop-opacity="1" stop-color="rgb(93.615723%, 79.347229%, 81.893921%)" offset="0.726562"/><stop stop-opacity="1" stop-color="rgb(93.048096%, 78.216553%, 80.799866%)" offset="0.730469"/><stop stop-opacity="1" stop-color="rgb(92.481995%, 77.085876%, 79.705811%)" offset="0.734375"/><stop stop-opacity="1" stop-color="rgb(91.914368%, 75.953674%, 78.611755%)" offset="0.738281"/><stop stop-opacity="1" stop-color="rgb(91.348267%, 74.822998%, 77.519226%)" offset="0.742188"/><stop stop-opacity="1" stop-color="rgb(90.78064%, 73.690796%, 76.425171%)" offset="0.746094"/><stop stop-opacity="1" stop-color="rgb(90.214539%, 72.56012%, 75.332642%)" offset="0.75"/><stop stop-opacity="1" stop-color="rgb(89.646912%, 71.429443%, 74.238586%)" offset="0.753906"/><stop stop-opacity="1" stop-color="rgb(89.080811%, 70.298767%, 73.146057%)" offset="0.757812"/><stop stop-opacity="1" stop-color="rgb(88.514709%, 69.166565%, 72.052002%)" offset="0.761719"/><stop stop-opacity="1" stop-color="rgb(87.948608%, 68.035889%, 70.959473%)" offset="0.765625"/><stop stop-opacity="1" stop-color="rgb(87.380981%, 66.903687%, 69.865417%)" offset="0.769531"/><stop stop-opacity="1" stop-color="rgb(86.81488%, 65.77301%, 68.772888%)" offset="0.773437"/><stop stop-opacity="1" stop-color="rgb(86.247253%, 64.640808%, 67.678833%)" offset="0.777344"/><stop stop-opacity="1" stop-color="rgb(85.681152%, 63.510132%, 66.584778%)" offset="0.78125"/><stop stop-opacity="1" stop-color="rgb(85.113525%, 62.379456%, 65.490723%)" offset="0.785156"/><stop stop-opacity="1" stop-color="rgb(84.547424%, 61.248779%, 64.398193%)" offset="0.789062"/><stop stop-opacity="1" stop-color="rgb(83.979797%, 60.116577%, 63.304138%)" offset="0.792969"/><stop stop-opacity="1" stop-color="rgb(83.413696%, 58.985901%, 62.211609%)" offset="0.796875"/><stop stop-opacity="1" stop-color="rgb(82.846069%, 57.853699%, 61.117554%)" offset="0.800781"/><stop stop-opacity="1" stop-color="rgb(82.279968%, 56.723022%, 60.025024%)" offset="0.804687"/><stop stop-opacity="1" stop-color="rgb(81.712341%, 55.592346%, 58.930969%)" offset="0.808594"/><stop stop-opacity="1" stop-color="rgb(81.14624%, 54.46167%, 57.83844%)" offset="0.8125"/><stop stop-opacity="1" stop-color="rgb(80.578613%, 53.329468%, 56.744385%)" offset="0.816406"/><stop stop-opacity="1" stop-color="rgb(80.012512%, 52.198792%, 55.651855%)" offset="0.820312"/><stop stop-opacity="1" stop-color="rgb(79.444885%, 51.066589%, 54.5578%)" offset="0.824219"/><stop stop-opacity="1" stop-color="rgb(78.878784%, 49.935913%, 53.463745%)" offset="0.828125"/><stop stop-opacity="1" stop-color="rgb(78.312683%, 48.805237%, 52.36969%)" offset="0.832031"/><stop stop-opacity="1" stop-color="rgb(77.746582%, 47.674561%, 51.277161%)" offset="0.835937"/><stop stop-opacity="1" stop-color="rgb(77.178955%, 46.542358%, 50.183105%)" offset="0.839844"/><stop stop-opacity="1" stop-color="rgb(76.612854%, 45.411682%, 49.090576%)" offset="0.84375"/><stop stop-opacity="1" stop-color="rgb(76.045227%, 44.27948%, 47.996521%)" offset="0.847656"/><stop stop-opacity="1" stop-color="rgb(75.479126%, 43.148804%, 46.903992%)" offset="0.851562"/><stop stop-opacity="1" stop-color="rgb(74.911499%, 42.018127%, 45.809937%)" offset="0.855469"/><stop stop-opacity="1" stop-color="rgb(74.345398%, 40.887451%, 44.717407%)" offset="0.859375"/><stop stop-opacity="1" stop-color="rgb(73.822021%, 39.842224%, 43.707275%)" offset="0.863281"/><stop stop-opacity="1" stop-color="rgb(73.298645%, 38.798523%, 42.698669%)" offset="0.867188"/><stop stop-opacity="1" stop-color="rgb(73.298645%, 38.798523%, 42.698669%)" offset="0.875"/><stop stop-opacity="1" stop-color="rgb(73.298645%, 38.798523%, 42.698669%)" offset="1"/></linearGradient></defs><g clip-path="url(#28113e700c)"><g clip-path="url(#80b0687add)"><path fill="url(#e6e986b968)" d="M 48.292969 47.46875 L 48.292969 327.1875 L 326.433594 327.1875 L 326.433594 47.46875 Z M 48.292969 47.46875 " fill-rule="nonzero"/></g></g><g fill="#e697ad" fill-opacity="1"><g transform="translate(118.038261, 252.882067)"><g><path d="M 8.890625 0.171875 L 8.640625 0.171875 L 2.0625 -8.0625 L 2.015625 -8.0625 L 2.015625 0 L 1.34375 0 L 1.34375 -9.9375 L 2.453125 -9.9375 L 8.171875 -2.71875 L 8.234375 -2.71875 L 8.234375 -9.9375 L 8.890625 -9.9375 Z M 8.890625 0.171875 "/></g></g></g><g fill="#e697ad" fill-opacity="1"><g transform="translate(135.250273, 252.882067)"><g><path d="M 0.15625 0 L 4.609375 -10.171875 L 4.828125 -10.171875 L 9.28125 0 L 7.65625 0 L 6.53125 -2.703125 L 2.0625 -2.703125 L 0.953125 0 Z M 2.296875 -3.265625 L 6.28125 -3.265625 L 4.3125 -8.125 Z M 2.296875 -3.265625 "/></g></g></g><g fill="#e697ad" fill-opacity="1"><g transform="translate(151.652915, 252.882067)"><g><path d="M 2.734375 -9.9375 L 2.734375 0 L 1.34375 0 L 1.34375 -9.9375 Z M 2.734375 -9.9375 "/></g></g></g><g fill="#e697ad" fill-opacity="1"><g transform="translate(162.704711, 252.882067)"><g><path d="M 1.34375 0 L 1.34375 -9.9375 L 2.8125 -9.9375 L 2.8125 -0.8125 C 3.425781 -0.632812 3.921875 -0.546875 4.296875 -0.546875 L 7 -1 L 6.828125 0 Z M 1.34375 0 "/></g></g></g><g fill="#e697ad" fill-opacity="1"><g transform="translate(176.979003, 252.882067)"><g/></g></g><g fill="#e697ad" fill-opacity="1"><g transform="translate(187.701064, 252.882067)"><g><path d="M 3.75 0.1875 C 3.050781 0.1875 2.378906 0.00390625 1.734375 -0.359375 C 1.410156 -0.546875 1.144531 -0.828125 0.9375 -1.203125 C 0.726562 -1.578125 0.625 -2.015625 0.625 -2.515625 C 0.625 -3.179688 0.875 -3.757812 1.375 -4.25 C 1.882812 -4.75 2.65625 -5.082031 3.6875 -5.25 C 3.3125 -6.101562 3.125 -6.882812 3.125 -7.59375 C 3.125 -8.019531 3.253906 -8.507812 3.515625 -9.0625 C 3.660156 -9.375 3.910156 -9.632812 4.265625 -9.84375 C 4.628906 -10.050781 5 -10.15625 5.375 -10.15625 C 5.757812 -10.15625 6.164062 -10.113281 6.59375 -10.03125 C 7.03125 -9.957031 7.359375 -9.867188 7.578125 -9.765625 L 7.421875 -8.8125 C 6.785156 -9.300781 6 -9.546875 5.0625 -9.546875 C 4.570312 -9.234375 4.328125 -8.675781 4.328125 -7.875 C 4.328125 -7.070312 4.570312 -6.15625 5.0625 -5.125 C 5.5625 -4.09375 6.222656 -3.164062 7.046875 -2.34375 C 7.398438 -2.90625 7.757812 -3.773438 8.125 -4.953125 C 7.863281 -4.953125 7.679688 -4.957031 7.578125 -4.96875 L 7.578125 -5.4375 C 8.585938 -5.457031 9.4375 -5.566406 10.125 -5.765625 L 9.875 -5.015625 C 9.6875 -4.984375 9.335938 -4.957031 8.828125 -4.9375 C 8.429688 -3.71875 7.972656 -2.722656 7.453125 -1.953125 C 8.597656 -0.960938 9.769531 -0.46875 10.96875 -0.46875 L 10.3125 0 C 9.132812 0 7.988281 -0.40625 6.875 -1.21875 C 6 -0.28125 4.957031 0.1875 3.75 0.1875 Z M 4.1875 -0.515625 C 5.050781 -0.515625 5.8125 -0.851562 6.46875 -1.53125 C 5.394531 -2.40625 4.539062 -3.484375 3.90625 -4.765625 C 3.21875 -4.578125 2.71875 -4.273438 2.40625 -3.859375 C 2.09375 -3.441406 1.9375 -2.992188 1.9375 -2.515625 C 1.9375 -1.828125 2.144531 -1.320312 2.5625 -1 C 2.988281 -0.675781 3.53125 -0.515625 4.1875 -0.515625 Z M 4.1875 -0.515625 "/></g></g></g><g fill="#e697ad" fill-opacity="1"><g transform="translate(206.336976, 252.882067)"><g/></g></g><g fill="#e697ad" fill-opacity="1"><g transform="translate(217.059037, 252.882067)"><g><path d="M 2.4375 -8.203125 C 2.4375 -7.765625 2.609375 -7.359375 2.953125 -6.984375 C 3.296875 -6.609375 3.710938 -6.273438 4.203125 -5.984375 C 4.703125 -5.703125 5.195312 -5.414062 5.6875 -5.125 C 6.175781 -4.832031 6.59375 -4.46875 6.9375 -4.03125 C 7.28125 -3.601562 7.453125 -3.128906 7.453125 -2.609375 C 7.453125 -1.785156 7.148438 -1.113281 6.546875 -0.59375 C 5.941406 -0.0703125 5.125 0.1875 4.09375 0.1875 C 3.0625 0.1875 2.039062 -0.0078125 1.03125 -0.40625 L 1.03125 -1.109375 C 2.050781 -0.597656 2.914062 -0.34375 3.625 -0.34375 C 4.34375 -0.34375 4.898438 -0.515625 5.296875 -0.859375 C 5.703125 -1.210938 5.90625 -1.703125 5.90625 -2.328125 C 5.90625 -2.742188 5.738281 -3.125 5.40625 -3.46875 C 5.082031 -3.8125 4.6875 -4.109375 4.21875 -4.359375 C 3.75 -4.617188 3.273438 -4.882812 2.796875 -5.15625 C 2.328125 -5.425781 1.925781 -5.769531 1.59375 -6.1875 C 1.269531 -6.601562 1.109375 -7.101562 1.109375 -7.6875 C 1.109375 -8.28125 1.367188 -8.832031 1.890625 -9.34375 C 2.421875 -9.851562 3.207031 -10.109375 4.25 -10.109375 C 4.925781 -10.109375 5.785156 -9.953125 6.828125 -9.640625 L 6.671875 -8.625 C 5.328125 -9.207031 4.171875 -9.5 3.203125 -9.5 C 2.691406 -9.25 2.4375 -8.816406 2.4375 -8.203125 Z M 2.4375 -8.203125 "/></g></g></g><g fill="#e697ad" fill-opacity="1"><g transform="translate(232.367534, 252.882067)"><g><path d="M 8.03125 -7.34375 C 8.03125 -6.382812 7.675781 -5.65625 6.96875 -5.15625 C 6.257812 -4.664062 5.300781 -4.421875 4.09375 -4.421875 L 2.8125 -4.421875 L 2.8125 0 L 1.34375 0 L 1.34375 -9.9375 L 4.578125 -9.9375 C 5.585938 -9.9375 6.414062 -9.703125 7.0625 -9.234375 C 7.707031 -8.773438 8.03125 -8.144531 8.03125 -7.34375 Z M 2.8125 -4.859375 L 4.140625 -4.859375 C 4.609375 -4.859375 5.007812 -4.945312 5.34375 -5.125 C 5.675781 -5.3125 5.921875 -5.539062 6.078125 -5.8125 C 6.347656 -6.3125 6.484375 -6.800781 6.484375 -7.28125 C 6.484375 -7.507812 6.421875 -7.78125 6.296875 -8.09375 C 6.054688 -8.757812 5.5625 -9.191406 4.8125 -9.390625 C 4.09375 -9.390625 3.425781 -9.304688 2.8125 -9.140625 Z M 2.8125 -4.859375 "/></g></g></g><g fill="#e697ad" fill-opacity="1"><g transform="translate(247.526148, 252.882067)"><g><path d="M 0.15625 0 L 4.609375 -10.171875 L 4.828125 -10.171875 L 9.28125 0 L 7.65625 0 L 6.53125 -2.703125 L 2.0625 -2.703125 L 0.953125 0 Z M 2.296875 -3.265625 L 6.28125 -3.265625 L 4.3125 -8.125 Z M 2.296875 -3.265625 "/></g></g></g><g fill="#e697ad" fill-opacity="1"><g transform="translate(68.601562, 207.749986)"><g><path d="M 66.859375 12 C 61.015625 12 56.234375 10.140625 52.515625 6.421875 C 49.753906 3.660156 47.9375 0.1875 47.0625 -4 C 42.6875 -0.6875 37.328125 0.96875 30.984375 0.96875 C 25.960938 0.96875 21.394531 -0.125 17.28125 -2.3125 C 13.164062 -4.5 9.945312 -7.5 7.625 -11.3125 C 5.300781 -15.132812 4.140625 -19.4375 4.140625 -24.21875 C 4.140625 -29 5.300781 -33.3125 7.625 -37.15625 C 9.945312 -41 13.15625 -43.976562 17.25 -46.09375 C 21.34375 -48.207031 25.921875 -49.265625 30.984375 -49.265625 C 37.328125 -49.265625 42.914062 -47.703125 47.75 -44.578125 L 49.125 -34.84375 L 48.5 -34.84375 C 47.125 -40.175781 44 -43.8125 39.125 -45.75 C 36.726562 -46.71875 34.015625 -47.203125 30.984375 -47.203125 C 24.773438 -47.203125 19.609375 -45.035156 15.484375 -40.703125 C 11.367188 -36.378906 9.3125 -30.894531 9.3125 -24.25 C 9.3125 -17.601562 11.378906 -12.09375 15.515625 -7.71875 C 19.660156 -3.351562 24.816406 -1.148438 30.984375 -1.109375 C 33.972656 -1.109375 36.820312 -1.632812 39.53125 -2.6875 C 42.25 -3.75 44.570312 -5.222656 46.5 -7.109375 L 46.5 -19.3125 C 46.5 -20.332031 46.203125 -21.101562 45.609375 -21.625 C 45.015625 -22.15625 44.164062 -22.421875 43.0625 -22.421875 L 41.953125 -22.421875 L 41.953125 -23.109375 L 55.46875 -23.109375 L 55.46875 -22.421875 L 54.4375 -22.421875 C 53.289062 -22.421875 52.414062 -22.15625 51.8125 -21.625 C 51.21875 -21.101562 50.941406 -20.332031 50.984375 -19.3125 L 50.984375 -8.6875 C 51.265625 -1.425781 53.632812 3.769531 58.09375 6.90625 C 61.226562 9.113281 65.273438 10.21875 70.234375 10.21875 C 72.304688 10.21875 74.5625 10.007812 77 9.59375 L 77.078125 10.28125 C 73.390625 11.425781 69.984375 12 66.859375 12 Z M 66.859375 12 "/></g></g><g transform="translate(126.975559, 207.749986)"><g><path d="M 17.25 1.3125 C 27.050781 4.71875 34.398438 7.03125 39.296875 8.25 C 44.191406 9.46875 48.398438 10.078125 51.921875 10.078125 C 55.441406 10.078125 59.316406 9.269531 63.546875 7.65625 L 63.890625 8.21875 C 58.273438 12.070312 52.617188 14 46.921875 14 C 41.078125 14 34.429688 12.1875 26.984375 8.5625 C 21.234375 5.707031 17.664062 3.976562 16.28125 3.375 C 11.363281 1.164062 7.316406 0.0390625 4.140625 0 L 4.140625 -0.6875 L 5.03125 -0.6875 C 6.226562 -0.6875 7.253906 -1.097656 8.109375 -1.921875 C 8.960938 -2.753906 9.410156 -3.789062 9.453125 -5.03125 L 9.453125 -43.265625 C 9.410156 -44.460938 8.960938 -45.484375 8.109375 -46.328125 C 7.253906 -47.179688 6.226562 -47.609375 5.03125 -47.609375 L 4.140625 -47.609375 L 4.140625 -48.296875 L 19.25 -48.296875 L 19.25 -47.609375 L 18.359375 -47.609375 C 17.160156 -47.609375 16.125 -47.179688 15.25 -46.328125 C 14.375 -45.484375 13.9375 -44.460938 13.9375 -43.265625 L 13.9375 -3.453125 C 13.9375 -2.617188 13.984375 -1.984375 14.078125 -1.546875 C 14.171875 -1.109375 14.46875 -0.613281 14.96875 -0.0625 C 15.476562 0.488281 16.238281 0.945312 17.25 1.3125 Z M 17.25 1.3125 "/></g></g><g transform="translate(154.644557, 207.749986)"><g><path d="M 19.109375 -32.21875 C 18.929688 -32.820312 18.84375 -33.34375 18.84375 -33.78125 C 18.84375 -34.21875 18.863281 -34.710938 18.90625 -35.265625 C 18.945312 -35.816406 19.046875 -36.570312 19.203125 -37.53125 C 19.367188 -38.5 19.679688 -39.453125 20.140625 -40.390625 C 20.609375 -41.335938 21.140625 -42.25 21.734375 -43.125 C 22.328125 -44 23.097656 -44.800781 24.046875 -45.53125 C 24.992188 -46.269531 26.039062 -46.914062 27.1875 -47.46875 C 29.625 -48.664062 32.59375 -49.265625 36.09375 -49.265625 C 43.125 -49.265625 48.859375 -46.929688 53.296875 -42.265625 C 57.742188 -37.597656 59.96875 -31.628906 59.96875 -24.359375 C 59.96875 -17.085938 57.34375 -11.046875 52.09375 -6.234375 C 46.851562 -1.429688 40.207031 0.96875 32.15625 0.96875 C 24.101562 0.96875 17.421875 -1.421875 12.109375 -6.203125 C 6.796875 -10.992188 4.140625 -17.207031 4.140625 -24.84375 C 4.140625 -29.757812 5.289062 -34.125 7.59375 -37.9375 C 9.894531 -41.757812 13.179688 -44.753906 17.453125 -46.921875 L 17.875 -46.296875 C 14.882812 -44.316406 12.734375 -41.460938 11.421875 -37.734375 C 10.109375 -34.015625 9.453125 -30.0625 9.453125 -25.875 C 9.453125 -18.101562 11.566406 -12.03125 15.796875 -7.65625 C 20.035156 -3.289062 25.460938 -1.109375 32.078125 -1.109375 C 38.703125 -1.109375 44.117188 -3.300781 48.328125 -7.6875 C 52.535156 -12.082031 54.640625 -17.867188 54.640625 -25.046875 C 54.640625 -31.253906 52.972656 -36.5 49.640625 -40.78125 C 46.304688 -45.0625 41.601562 -47.203125 35.53125 -47.203125 C 32.820312 -47.203125 30.363281 -46.71875 28.15625 -45.75 C 24.15625 -44.039062 21.507812 -41.234375 20.21875 -37.328125 C 19.851562 -36.179688 19.671875 -35.191406 19.671875 -34.359375 C 19.671875 -33.535156 19.710938 -32.867188 19.796875 -32.359375 Z M 19.109375 -32.21875 "/></g></g><g transform="translate(218.745553, 207.749986)"><g><path d="M 65.40625 11.734375 C 63.476562 12.234375 61.765625 12.484375 60.265625 12.484375 C 58.773438 12.484375 57.453125 12.390625 56.296875 12.203125 C 55.148438 12.023438 53.921875 11.671875 52.609375 11.140625 C 51.296875 10.609375 50.066406 10 48.921875 9.3125 C 47.773438 8.625 46.625 7.773438 45.46875 6.765625 C 43.351562 5.054688 41.429688 3.210938 39.703125 1.234375 C 37.984375 -0.734375 34.660156 -4.441406 29.734375 -9.890625 C 24.816406 -15.347656 21.550781 -18.972656 19.9375 -20.765625 C 18.332031 -22.554688 17.09375 -23.5 16.21875 -23.59375 L 16.21875 -24.28125 C 18.882812 -24.28125 20.664062 -24.335938 21.5625 -24.453125 C 22.457031 -24.578125 23.410156 -24.785156 24.421875 -25.078125 C 25.429688 -25.378906 26.285156 -25.78125 26.984375 -26.28125 C 29.691406 -28.03125 31.046875 -30.929688 31.046875 -34.984375 C 31.046875 -38.335938 30.296875 -41.023438 28.796875 -43.046875 C 27.304688 -45.078125 25.207031 -46.113281 22.5 -46.15625 L 13.9375 -46.15625 L 13.9375 -5.03125 C 13.9375 -3.882812 14.359375 -2.875 15.203125 -2 C 16.054688 -1.125 17.109375 -0.6875 18.359375 -0.6875 L 19.1875 -0.6875 L 19.25 0 L 4.140625 0 L 4.140625 -0.6875 L 5.03125 -0.6875 C 6.1875 -0.6875 7.203125 -1.097656 8.078125 -1.921875 C 8.953125 -2.753906 9.410156 -3.769531 9.453125 -4.96875 L 9.453125 -43.265625 C 9.410156 -44.460938 8.960938 -45.484375 8.109375 -46.328125 C 7.253906 -47.179688 6.226562 -47.609375 5.03125 -47.609375 L 4.140625 -47.609375 L 4.140625 -48.296875 L 22.765625 -48.296875 C 26.816406 -48.296875 30.070312 -47.15625 32.53125 -44.875 C 34.988281 -42.601562 36.21875 -39.59375 36.21875 -35.84375 C 36.21875 -32.09375 35.09375 -28.875 32.84375 -26.1875 C 30.59375 -23.5 27.832031 -22.15625 24.5625 -22.15625 C 24.5625 -22.15625 24.539062 -22.15625 24.5 -22.15625 C 26.0625 -20.5 27.832031 -18.566406 29.8125 -16.359375 C 37.769531 -7.566406 42.875 -2.046875 45.125 0.203125 C 47.375 2.460938 49.363281 4.316406 51.09375 5.765625 C 52.820312 7.210938 54.351562 8.28125 55.6875 8.96875 C 58.394531 10.4375 61.082031 11.171875 63.75 11.171875 C 64.300781 11.171875 64.851562 11.128906 65.40625 11.046875 Z M 65.40625 11.734375 "/></g></g></g><g fill="#e697ad" fill-opacity="1"><g transform="translate(263.733572, 207.749986)"><g><path d="M -2.765625 -52.234375 C -2.441406 -52.234375 -1.863281 -52.234375 -1.03125 -52.234375 C -0.207031 -52.234375 0.914062 -52.09375 2.34375 -51.8125 C 3.769531 -51.539062 5.09375 -51.140625 6.3125 -50.609375 C 7.53125 -50.078125 8.722656 -49.316406 9.890625 -48.328125 C 11.066406 -47.335938 12.066406 -46.414062 12.890625 -45.5625 C 13.722656 -44.71875 14.566406 -43.601562 15.421875 -42.21875 C 16.273438 -40.84375 16.960938 -39.671875 17.484375 -38.703125 C 18.015625 -37.742188 18.601562 -36.476562 19.25 -34.90625 C 20.082031 -32.9375 20.75 -31.222656 21.25 -29.765625 C 21.757812 -28.316406 22.035156 -27.523438 22.078125 -27.390625 C 22.128906 -27.253906 22.195312 -27.09375 22.28125 -26.90625 C 22.425781 -26.539062 22.539062 -26.21875 22.625 -25.9375 C 22.769531 -26.257812 23.09375 -27.109375 23.59375 -28.484375 C 24.101562 -29.867188 24.578125 -31.113281 25.015625 -32.21875 C 25.453125 -33.320312 26.128906 -34.882812 27.046875 -36.90625 C 27.960938 -38.9375 28.800781 -40.535156 29.5625 -41.703125 C 30.320312 -42.878906 31.300781 -44.226562 32.5 -45.75 C 33.695312 -47.269531 34.894531 -48.441406 36.09375 -49.265625 C 39.03125 -51.242188 42.15625 -52.234375 45.46875 -52.234375 L 45.46875 -51.546875 C 42.894531 -51.546875 40.257812 -50.1875 37.5625 -47.46875 C 34.875 -44.757812 32.578125 -41.484375 30.671875 -37.640625 C 28.765625 -33.796875 27.203125 -29.816406 25.984375 -25.703125 C 24.765625 -21.585938 24.15625 -18.082031 24.15625 -15.1875 L 24.15625 -5.03125 C 24.15625 -3.375 24.863281 -2.132812 26.28125 -1.3125 C 26.976562 -0.894531 27.738281 -0.6875 28.5625 -0.6875 L 29.390625 -0.6875 L 29.390625 0 L 14.359375 0 L 14.359375 -0.6875 L 15.25 -0.6875 C 16.394531 -0.6875 17.40625 -1.097656 18.28125 -1.921875 C 19.15625 -2.753906 19.617188 -3.769531 19.671875 -4.96875 L 19.671875 -15.25 C 19.671875 -18.332031 19.023438 -21.941406 17.734375 -26.078125 C 16.441406 -30.222656 14.785156 -34.191406 12.765625 -37.984375 C 10.742188 -41.773438 8.328125 -44.984375 5.515625 -47.609375 C 2.710938 -50.234375 -0.046875 -51.546875 -2.765625 -51.546875 Z M -2.765625 -52.234375 "/></g></g></g></svg>